<?xml version="1.0" standalone="no"?>
<!DOCTYPE svg PUBLIC "-//W3C//DTD SVG 1.1//EN" "http://www.w3.org/Graphics/SVG/1.1/DTD/svg11.dtd" >
<svg xmlns="http://www.w3.org/2000/svg">
<metadata>
<json>
<![CDATA[
{
	"fontFamily": "run",
	"majorVersion": 1,
	"minorVersion": 0,
	"version": "Version 1.0",
	"fontId": "run",
	"psName": "run",
	"subFamily": "Regular",
	"fullName": "run",
	"description": "Font generated by IcoMoon."
}
]]>
</json>
</metadata>
<defs>
<font id="run" horiz-adv-x="1024">
<font-face units-per-em="1024" ascent="960" descent="-64" />
<missing-glyph horiz-adv-x="1024" />
<glyph unicode="&#x20;" horiz-adv-x="512" d="" />
<glyph unicode="&#xe900;" glyph-name="code" data-tags="code" d="M-0.138 959.040v-223.072h223.658v223.072h-223.658zM164.552 795.448h-105.795v104.11h105.866v-104.11zM800.48 959.040v-223.072h223.658v223.072h-223.658zM965.242 795.448h-105.866v104.11h105.866v-104.11zM-0.138 160.178v-223.218h223.658v223.218h-223.658zM164.552-3.558h-105.795v104.184h105.866v-104.184zM800.48 160.178v-223.218h223.658v223.218h-223.658zM965.242-3.558h-105.866v104.184h105.866v-104.184zM201.718 856.174h640.172v-58.018h-640.172v58.018zM201.718 95.064h640.172v-58.164h-640.172v58.164zM103.68 757.99h58.018v-640.172h-58.018v640.172zM864.79 757.99h58.018v-640.172h-58.018v640.172z" />
<glyph unicode="&#xe901;" glyph-name="go" data-tags="go" d="M512 944.128c273.408 0 496.64-223.232 496.64-496.64 0-17.408-13.312-30.72-30.72-30.72s-30.72 13.312-30.72 30.72c0 239.616-195.584 435.2-435.2 435.2s-435.2-195.584-435.2-435.2 195.584-435.2 435.2-435.2c114.688 0 223.232 44.032 305.152 124.928 12.288 12.288 31.743 11.265 43.008 0 12.288-12.288 11.265-31.743 0-43.008-93.184-92.16-217.088-142.336-348.16-142.336-273.408 0-496.64 223.232-496.64 496.64s223.232 495.616 496.64 495.616zM545.792 626.688c12.288 12.288 31.743 12.288 43.008 0l157.696-157.696c6.144-6.144 9.216-13.312 9.216-21.504s-3.072-16.384-9.216-21.504l-157.696-157.696c-6.144-6.144-14.336-9.216-21.504-9.216s-15.36 3.072-21.504 9.216c-12.288 12.288-12.288 31.743 0 43.008l104.448 105.472h-351.232c-17.408 0-30.72 13.312-30.72 30.72s13.312 30.72 30.72 30.72h351.232l-105.472 105.472c-11.265 11.265-11.265 30.72 1.024 43.008z" />
<glyph unicode="&#xe902;" glyph-name="map" data-tags="map" d="M512.012-49.078c-7.59 0-14.806 3.014-20.147 8.383-14.146 14.198-346.172 351.249-346.172 619.504 0.027 201.947 164.375 366.268 366.319 366.268s366.295-164.321 366.295-366.295c0-266.961-332.002-605.176-346.148-619.453-5.314-5.369-12.533-8.407-20.147-8.407v0zM512.012 888.257c-170.64 0-309.503-138.835-309.503-309.503 0-209.163 237.772-481.015 309.476-558.191 71.598 77.416 309.503 350.192 309.503 558.191 0.027 170.668-138.808 309.503-309.476 309.503zM512.012 396.827c-94.707 0-171.752 77.045-171.752 171.725s77.073 171.752 171.752 171.752 171.752-77.045 171.752-171.725-77.045-171.752-171.752-171.752zM512.012 683.509c-63.376 0-114.96-51.557-114.96-114.933s51.557-114.933 114.96-114.933 114.96 51.557 114.96 114.933-51.584 114.933-114.96 114.933z" />
<glyph unicode="&#xe903;" glyph-name="call" data-tags="call" d="M973.876 84.556c-2.23-28.24-15.444-53.92-37.132-72.276l-29.162-24.616c-127.316-107.568-399.85 8.528-620.408 264.296-151.876 176.134-239.276 373.194-228.13 514.316 4.508 57.12 25.894 103.384 61.824 133.752l29.124 24.584c21.724 18.39 49.414 27.294 77.954 25.038s54.458-15.388 73.022-36.992l99.624-115.47c37.208-43.118 31.638-112.772-11.804-149.484l-29.128-24.618c-9.374-7.908-14.492-18.626-15.608-32.734-2.108-26.684 8.858-88.262 105.906-200.828 113.932-132.162 187.738-151.18 218.834-124.948l29.134 24.652c44.904 37.898 112.61 32.554 150.946-11.92l99.648-115.538c18.56-21.576 27.586-49.004 25.36-77.218v0l-0.004 0.004z" />
<glyph unicode="&#xe904;" glyph-name="address" data-tags="address" d="M512-34.827c-79.616 0-159.211 30.293-219.819 90.901-121.195 121.216-121.195 318.443 0 439.659 7.403 7.403 19.349 7.403 26.731 0 7.403-7.403 7.403-19.349 0-26.731-106.475-106.475-106.475-279.723 0-386.176 106.453-106.453 279.68-106.432 386.176 0 106.475 106.475 106.475 279.723 0 386.176-7.403 7.403-7.403 19.349 0 26.731 7.403 7.403 19.349 7.403 26.731 0 121.195-121.216 121.195-318.443 0-439.659-60.608-60.608-140.203-90.901-219.819-90.901zM512 184.16c-5.696 0-11.115 2.261-15.125 6.293-10.624 10.667-259.989 263.808-259.989 465.28 0 151.68 123.435 275.093 275.115 275.093s275.115-123.413 275.115-275.115c0-200.512-249.344-454.528-259.968-465.237-4.011-4.032-9.429-6.315-15.147-6.315v0zM512 888.16c-128.171 0-232.448-104.277-232.448-232.448 0-157.099 178.581-361.28 232.427-419.243 53.781 58.133 232.448 263.019 232.448 419.243 0.021 128.171-104.256 232.448-232.427 232.448zM512 519.051c-71.125 0-129.003 57.856-129.003 128.981s57.877 129.003 129.003 129.003 129.003-57.856 129.003-128.981-57.877-129.003-129.003-129.003zM512 734.368c-47.595 0-86.336-38.72-86.336-86.315s38.72-86.315 86.336-86.315 86.336 38.72 86.336 86.315-38.741 86.315-86.336 86.315z" />
<glyph unicode="&#xe905;" glyph-name="camera" data-tags="camera" d="M945.334 725.333h-205.851c0 0-2.149 4.125-2.149 52s-38.792 86.667-86.667 86.667h-277.333c-47.875 0-86.667-38.792-86.667-86.667s2.149-52 2.149-52h-210.149c-38.272 0-69.333-31.061-69.333-69.333v-554.667c0-38.272 31.061-69.333 69.333-69.333h866.667c38.272 0 69.333 31.061 69.333 69.333v554.667c0 38.272-31.061 69.333-69.333 69.333zM513.561 171.603c-114.885 0-208 93.115-208 208 0 114.851 93.115 208 208 208 114.851 0 208-93.115 208-208s-93.149-208-208-208z" />
<glyph unicode="&#xe906;" glyph-name="toggle" data-tags="toggle" d="M143.232 768c0-17.672-14.328-32-32-32s-32 14.328-32 32c0 17.672 14.328 32 32 32s32-14.328 32-32zM960 767c0-17.12-13.88-31-31-31h-674c-17.12 0-31 13.88-31 31v2c0 17.12 13.88 31 31 31h674c17.12 0 31-13.88 31-31v-2zM135.232 448c0-17.672-14.328-32-32-32s-32 14.328-32 32c0 17.672 14.328 32 32 32s32-14.328 32-32zM952 447c0-17.12-13.88-31-31-31h-674c-17.12 0-31 13.88-31 31v2c0 17.12 13.88 31 31 31h674c17.12 0 31-13.88 31-31v-2zM143.232 128c0-17.672-14.328-32-32-32s-32 14.328-32 32c0 17.672 14.328 32 32 32s32-14.328 32-32zM960 127c0-17.12-13.88-31-31-31h-674c-17.12 0-31 13.88-31 31v2c0 17.12 13.88 31 31 31h674c17.12 0 31-13.88 31-31v-2z" />
<glyph unicode="&#xe907;" glyph-name="shield" data-tags="shield" d="M512.008-64c-3.312 0-6.632 0.512-9.832 1.536-107.424 34.408-198.872 100.408-271.832 196.168-57.432 75.392-103.424 169.216-136.68 278.88-56.096 184.968-56.744 349.744-56.744 356.664 0 16.592 12.6 30.472 29.12 32.064 2.488 0.24 252.696 25.928 427.032 152.536 11.288 8.2 26.576 8.192 37.864 0 174.288-126.6 424.528-152.288 427.032-152.536 16.504-1.608 29.104-15.488 29.104-32.064 0-6.92-0.648-171.704-56.744-356.672-33.256-109.664-79.248-203.488-136.68-278.88-72.952-95.752-164.408-161.76-271.824-196.168-3.192-1.016-6.504-1.528-9.816-1.528zM102.28 740.992c2.68-54.072 13.088-178.6 53.488-311.176 68.96-226.248 188.792-370.072 356.232-427.656 167.832 57.72 287.8 202.032 356.672 429.12 40.128 132.32 50.424 255.904 53.064 309.704-72.176 10.536-259.136 46.176-409.736 147.504-150.616-101.32-337.544-136.968-409.72-147.496zM494.776 291.12c-7.64 0-15.080 2.72-20.936 7.728l-116.504 99.632c-13.52 11.56-15.112 31.896-3.544 45.424 11.56 13.528 31.896 15.112 45.424 3.544l90.608-77.48 179.576 235.552c10.784 14.152 31 16.88 45.152 6.088 14.152-10.784 16.872-31 6.088-45.152l-200.24-262.656c-5.368-7.048-13.4-11.568-22.216-12.504-1.136-0.12-2.272-0.176-3.408-0.176z" />
<glyph unicode="&#xe908;" glyph-name="bookmark" data-tags="bookmark" d="M274.656 848h525.344v32.456c0 7.168-14.024 15.544-22.416 15.544h-552.592c-8.392 0-16.992-8.376-16.992-15.544v-842.016c0-5.080 4.384-9.664 9.776-11.776 5.384-2.136 11.528-1.36 16.032 1.968l22.192 16.52v783.488c0 7.168 10.264 19.36 18.656 19.36zM818.664 804.896v-790.2c0-5.080-3.472-9.664-8.864-11.776-2.016-0.8-4.176-1.176-6.312-1.176-3.568 0-7.12 1.072-9.928 3.144l-240.456 177.288-240.464-177.288c-4.504-3.328-10.848-4.104-16.24-1.968-5.384 2.112-8.864 6.696-8.864 11.776v790.2c0 7.16 6.784 12.952 15.176 12.952h500.768c8.4 0 15.184-5.792 15.184-12.952z" />
<glyph unicode="&#xe909;" glyph-name="location" data-tags="location" d="M494.872 959.632c-181.008-8.48-329.76-156.896-338.624-337.928-7.528-153.984 84.040-294.632 227.872-350 13.512-5.208 23.776-16.36 27.448-29.872l78.936-289.424c2.648-9.68 11.44-16.408 21.48-16.408s18.832 6.72 21.48 16.408l78.936 289.448c3.672 13.512 13.824 24.624 27.112 29.72 136.752 52.472 228.648 186 228.648 332.28 0.040 202.064-169.056 364.904-373.288 355.776zM512 466.64c-77.944 0-141.36 63.416-141.36 141.36s63.416 141.36 141.36 141.36 141.36-63.416 141.36-141.36c0-77.944-63.416-141.36-141.36-141.36z" />
<glyph unicode="&#xe90a;" glyph-name="clock" data-tags="clock" d="M704 464h-144v208c0 26.512-21.488 48-48 48s-48-21.488-48-48v-256c0-26.512 21.488-48 48-48h192c26.512 0 48 21.488 48 48s-21.488 48-48 48zM310.592 886.8c-32.672 25.728-73.792 41.2-118.592 41.2-106.032 0-192-85.968-192-192 0-44.8 15.472-85.92 41.2-118.592 51.744 120.8 148.592 217.648 269.392 269.392zM836.016 928c-43.872 0-84.128-15.152-116.112-40.336 118.288-50.672 213.088-145.488 263.744-263.76 25.184 32 40.336 72.256 40.336 116.112 0.016 103.824-84.144 187.984-187.968 187.984zM512 880c-256.256 0-464-207.744-464-464 0-123.056 48.24-234.624 126.432-317.68l-64.368-64.368c-8.688-8.704-14.064-20.704-14.064-33.952 0-26.512 21.488-48 48-48 13.248 0 25.248 5.376 33.936 14.064l69.232 69.232c75.136-52.352 166.304-83.296 264.832-83.296 98.72 0 190.048 31.056 265.264 83.632l69.696-69.712c8.608-8.608 20.48-13.92 33.584-13.92 26.208 0 47.456 21.248 47.456 47.456 0 13.104-5.312 24.992-13.904 33.584l-64.896 64.896c78.432 83.056 126.8 194.8 126.8 318.064 0 256.256-207.744 464-464 464zM512 48c-203.248 0-368 164.752-368 368s164.752 368 368 368c203.232 0 368-164.752 368-368s-164.752-368-368-368z" />
<glyph unicode="&#xe90b;" glyph-name="calendar" data-tags="calendar" horiz-adv-x="1025" d="M939.246 863.996h-138.691v64c0 17.694-14.295 32.011-32.011 32.011s-32.011-14.295-32.011-32.011v-64h-191.999v64c0 17.694-14.336 32.011-32.011 32.011s-32.011-14.295-32.011-32.011v-64h-191.999v64c0 17.694-14.336 32.011-32.011 32.011s-32.011-14.295-32.011-32.011v-64h-138.649c-47.145 0-85.339-38.174-85.339-85.319v-757.346c0-47.145 38.216-85.339 85.339-85.339h853.335c47.145 0 85.319 38.216 85.319 85.339v757.346c0 47.145-38.174 85.319-85.319 85.319zM960.565 21.35c0-11.776-9.564-21.34-21.319-21.34h-853.335c-11.776 0-21.34 9.564-21.34 21.34v757.346c0 11.735 9.564 21.319 21.34 21.319h138.649v-64c0-17.694 14.336-32.011 32.011-32.011s32.011 14.295 32.011 32.011v64h191.999v-64c0-17.694 14.336-32.011 32.011-32.011s32.011 14.295 32.011 32.011v64h191.999v-64c0-17.694 14.295-32.011 32.011-32.011s32.011 14.295 32.011 32.011v64h138.691c11.735 0 21.319-9.564 21.319-21.319v-757.346zM224.579 576.008h127.999v-96.010h-127.999zM224.579 415.998h127.999v-96.010h-127.999zM224.579 256.009h127.999v-96.010h-127.999zM448.567 256.009h127.999v-96.010h-127.999zM448.567 415.998h127.999v-96.010h-127.999zM448.567 576.008h127.999v-96.010h-127.999zM672.577 256.009h127.999v-96.010h-127.999zM672.577 415.998h127.999v-96.010h-127.999zM672.577 576.008h127.999v-96.010h-127.999z" />
<glyph unicode="&#xe90c;" glyph-name="right" data-tags="right" d="M937.142 778.667q20.313 0 33.776-13.463t13.463-33.776q0-19.934-13.652-33.586l-566.857-566.857q-13.652-13.652-33.586-13.652t-33.586 13.652l-283.429 283.429q-13.652 13.652-13.652 33.586 0 20.313 13.463 33.776t33.776 13.463q19.934 0 33.586-13.652l249.842-250.22 533.271 533.648q13.652 13.652 33.586 13.652z" />
<glyph unicode="&#xe90d;" glyph-name="wrong" data-tags="wrong" d="M874.678 737.365l-73.313 73.313-289.365-289.365-289.365 289.365-73.313-73.313 289.365-289.365-289.365-289.365 73.313-73.313 289.365 289.365 289.365-289.365 73.313 73.313-289.365 289.365z" />
<glyph unicode="&#xe90e;" glyph-name="share" data-tags="share" d="M131.168 22.272c-37.032 0-67.168 30.128-67.168 67.152v649.096c0 37.024 30.128 67.152 67.168 67.152h335.744v-67.168h-290.984c-24.68 0-44.752-20.072-44.752-44.752v-559.584c0-24.68 20.072-44.752 44.752-44.752h604.344c24.696 0 44.768 20.072 44.768 44.752v179.072h67.136v-223.808c0-37.024-30.112-67.152-67.136-67.152l-693.872-0.008zM296.968 325.568l4.856 13.424c79.736 220.152 291.096 373.992 514 374.104h9.52l-103.296 103.32c-6.336 6.328-9.84 14.752-9.84 23.744 0 8.96 3.504 17.384 9.84 23.736 6.336 6.336 14.76 9.832 23.736 9.832 8.936 0 17.376-3.488 23.736-9.824l180.656-180.664c6.376-6.368 9.864-14.824 9.824-23.808 0-8.92-3.504-17.32-9.864-23.64l-1.792-1.768-4.16-1.952-174.472-174.96c-6.264-6.28-14.624-9.744-23.544-9.744s-17.28 3.472-23.544 9.744c-6.296 6.288-9.744 14.648-9.728 23.552 0 8.904 3.464 17.272 9.728 23.552l138.432 138.4-8.376 0.752c-10.752 0.96-21.712 1.44-32.56 1.44-188.4 0-384.064-143.080-455.12-332.832l-6.048-16.184-61.984 29.776z" />
<glyph unicode="&#xe90f;" glyph-name="triangle_r" data-tags="triangle_r" d="M148.646-30.968c0-18.168 13.212-33.032 31.38-33.032l663.948 462.452c26.426 18.168 31.38 37.988 31.38 51.2v0c0 0-1.652 28.078-31.38 49.548l-663.948 460.8c-16.516 0-31.38-14.864-31.38-33.032v-957.936z" />
<glyph unicode="&#xe910;" glyph-name="play" data-tags="play" d="M1024 169.906c0-87.21-70.696-157.906-157.906-157.906h-708.188c-87.21 0-157.906 70.696-157.906 157.906v556.188c0 87.21 70.696 157.906 157.906 157.906h708.188c87.21 0 157.906-70.696 157.906-157.906v-556.188zM374 265.388l316.294 182.612-316.294 182.612v-365.224z" />
<glyph unicode="&#xe911;" glyph-name="zfb" data-tags="zfb" d="M534.523 337.779c0 0-122.338-179.588-295.937-140.748-28.652 6.43-50.416 15.458-65.165 27.799-63.346 53-36.643 134.708 22.934 169.651 54.185 31.76 157.681 41.373 338.168-56.702v0zM211.493 940.52h600.256c105.965 0 192.635-86.644 192.635-192.579v-480.375c-71.142 24.617-224.536 77.291-331.541 112.624 59.902 104.051 85.305 201.022 85.305 201.022h-189.971v68.653h232.917v30.852h-232.917v113.275h-105.317v-113.274h-232.917v-30.852h232.917v-68.653h-202.64v-36.632h377.734c-7.081-62.288-27.547-97.816-55.485-138.799-190.751 51.766-337.778 83.592-434.388 5.001-98.429-80.084-45.804-330.664 231.227-274.611 102.782 20.849 181.395 87.489 239.674 163.026l384.881-165.884c-7.601-99.114-91.088-177.834-192.116-177.834h-600.255c-105.965 0-192.635 86.644-192.635 192.579v599.884c0 105.935 86.67 192.578 192.635 192.578v0z" />
<glyph unicode="&#xe912;" glyph-name="news" data-tags="news" horiz-adv-x="1025" d="M928.646 960.151h-704.193c-53.038 0-96.037-42.959-96.037-96.037v-64.018h-32.020c-53.038 0-96.037-42.959-96.037-96.037v-640.175c0-70.716 57.319-128.035 128.035-128.035h768.211c70.716 0 128.035 57.319 128.035 128.035v800.228c0 53.079-43.019 96.037-96.037 96.037zM960.644 63.907c0-35.276-28.742-64.018-64.018-64.018h-768.211c-35.297 0-64.018 28.742-64.018 64.018v640.175c0 17.658 14.34 32.020 32.020 32.020h32.020v-640.175c0-17.699 14.299-32.020 32.020-32.020s32.020 14.299 32.020 32.020v768.211c0 17.679 14.34 32.020 32.020 32.020h704.193c17.639 0 32.020-14.34 32.020-32.020v-800.228zM624.497 543.883c-8.809 0-15.999 7.17-15.999 15.999s7.211 15.999 15.999 15.999h256.070c8.872 0 15.999-7.17 15.999-15.999s-7.129-15.999-15.999-15.999h-256.070zM624.497 639.9c-8.809 0-15.999 7.17-15.999 15.999s7.211 15.999 15.999 15.999h256.070c8.872 0 15.999-7.17 15.999-15.999s-7.129-15.999-15.999-15.999h-256.070zM624.497 735.936c-8.809 0-15.999 7.17-15.999 15.999s7.211 15.999 15.999 15.999h256.070c8.872 0 15.999-7.17 15.999-15.999s-7.129-15.999-15.999-15.999h-256.070zM528.524 95.781c8.829 0 15.999-7.211 15.999-15.999 0-8.872-7.211-15.999-15.999-15.999h-256.070c-8.829 0-15.999 7.129-15.999 15.999 0 8.809 7.17 15.999 15.999 15.999h256.070zM528.524 191.818c8.829 0 15.999-7.211 15.999-15.999 0-8.872-7.211-15.999-15.999-15.999h-256.070c-8.829 0-15.999 7.129-15.999 15.999 0 8.809 7.17 15.999 15.999 15.999h256.070zM528.524 287.833c8.829 0 15.999-7.211 15.999-15.999 0-8.872-7.211-15.999-15.999-15.999h-256.070c-8.829 0-15.999 7.129-15.999 15.999 0 8.809 7.17 15.999 15.999 15.999h256.070zM880.628 95.781c8.809 0 15.999-7.211 15.999-15.999 0-8.872-7.211-15.999-15.999-15.999h-256.070c-8.872 0-15.999 7.129-15.999 15.999 0 8.809 7.129 15.999 15.999 15.999h256.070zM880.628 191.818c8.809 0 15.999-7.211 15.999-15.999 0-8.872-7.211-15.999-15.999-15.999h-256.070c-8.872 0-15.999 7.129-15.999 15.999 0 8.809 7.129 15.999 15.999 15.999h256.070zM880.628 287.833c8.809 0 15.999-7.211 15.999-15.999 0-8.872-7.211-15.999-15.999-15.999h-256.070c-8.872 0-15.999 7.129-15.999 15.999 0 8.809 7.129 15.999 15.999 15.999h256.070zM880.628 479.886c8.809 0 15.999-7.17 15.999-15.999s-7.211-15.999-15.999-15.999h-608.178c-8.829 0-15.999 7.17-15.999 15.999s7.17 15.999 15.999 15.999h608.178zM880.628 383.871c8.809 0 15.999-7.211 15.999-15.999 0-8.872-7.211-15.999-15.999-15.999h-608.178c-8.829 0-15.999 7.129-15.999 15.999 0 8.809 7.17 15.999 15.999 15.999h608.178zM288.473 544.027h224.073c17.699 0 32.020 14.299 32.020 32.020v223.929c0 17.699-14.299 32.020-32.020 32.020h-224.073c-17.699 0-32.020-14.299-32.020-32.020v-223.929c0-17.679 14.299-32.020 32.020-32.020zM320.471 768.099h160.055v-160.055h-160.055v160.055z" />
<glyph unicode="&#xe913;" glyph-name="wx" data-tags="icon2" d="M853.436 944.469h-682.917c-83.415 0-151.662-68.247-151.662-151.662v-689.614c0-83.415 68.247-151.662 151.662-151.662h682.917c83.415 0 151.662 68.247 151.662 151.662v689.614c0 83.415-68.247 151.662-151.662 151.662zM427.494 435.576c-0.296-0.695-0.579-1.395-0.867-2.094-0.286-0.695-0.568-1.393-0.845-2.092-0.279-0.698-0.566-1.392-0.837-2.093-0.269-0.695-0.521-1.395-0.783-2.094-0.263-0.697-0.529-1.392-0.785-2.092-0.253-0.697-0.501-1.395-0.747-2.093-0.247-0.695-0.483-1.394-0.722-2.093s-0.489-1.392-0.721-2.092c-0.23-0.694-0.44-1.397-0.662-2.094-0.223-0.697-0.447-1.393-0.662-2.093-0.215-0.697-0.432-1.392-0.64-2.092-0.208-0.695-0.401-1.395-0.602-2.093s-0.408-1.392-0.602-2.094c-0.192-0.695-0.374-1.394-0.56-2.092-0.184-0.697-0.364-1.395-0.541-2.093s-0.368-1.392-0.541-2.094c-0.17-0.693-0.32-1.397-0.483-2.093s-0.328-1.392-0.485-2.092c-0.157-0.697-0.315-1.393-0.465-2.093-0.148-0.695-0.283-1.395-0.426-2.092s-0.289-1.394-0.426-2.094c-0.134-0.697-0.263-1.395-0.39-2.093-0.127-0.695-0.248-1.395-0.368-2.094-0.121-0.697-0.255-1.392-0.368-2.092-0.115-0.695-0.212-1.395-0.319-2.094-0.106-0.697-0.209-1.394-0.31-2.092s-0.214-1.393-0.307-2.093c-0.093-0.695-0.168-1.397-0.255-2.094s-0.173-1.393-0.253-2.093c-0.080-0.697-0.167-1.393-0.239-2.092-0.072-0.695-0.131-1.395-0.195-2.093-0.067-0.697-0.137-1.394-0.197-2.092-0.058-0.698-0.118-1.395-0.171-2.094-0.054-0.697-0.094-1.395-0.14-2.093-0.047-0.697-0.101-1.392-0.14-2.092-0.041-0.697-0.074-1.395-0.106-2.093-0.035-0.695-0.057-1.395-0.083-2.094-0.028-0.698-0.063-1.393-0.085-2.092-0.019-0.697-0.028-1.395-0.041-2.093s-0.021-1.395-0.030-2.093c-0.006-0.697-0.028-1.394-0.028-2.094l-0.003-0.216c0-0.626 0.003-1.252 0.010-1.876 0.005-0.698 0.014-1.395 0.030-2.092 0.011-0.7 0.031-1.397 0.050-2.093 0.021-0.698 0.046-1.397 0.072-2.093 0.030-0.698 0.058-1.397 0.093-2.094 0.034-0.698 0.074-1.395 0.116-2.093s0.086-1.395 0.135-2.092c0.049-0.699 0.101-1.395 0.157-2.092 0.055-0.7 0.113-1.397 0.176-2.094s0.129-1.397 0.2-2.094c0.069-0.698 0.142-1.397 0.219-2.093 0.077-0.698 0.157-1.395 0.239-2.092 0.083-0.698 0.171-1.397 0.261-2.094s0.184-1.395 0.282-2.092c0.098-0.7 0.197-1.397 0.302-2.093 0.104-0.698 0.212-1.397 0.323-2.093 0.113-0.699 0.227-1.397 0.344-2.094 0.119-0.698 0.239-1.395 0.364-2.092s0.255-1.397 0.387-2.093c0.132-0.698 0.266-1.395 0.404-2.092 0.14-0.7 0.282-1.397 0.428-2.093 0.145-0.698 0.294-1.397 0.445-2.094 0.153-0.698 0.31-1.397 0.468-2.093 0.16-0.699 0.321-1.395 0.488-2.092 0.167-0.7 0.336-1.397 0.509-2.094s0.349-1.395 0.529-2.092c0.181-0.7 0.363-1.397 0.55-2.094s0.377-1.397 0.569-2.093c0.194-0.698 0.392-1.397 0.59-2.094l0.343-1.186c-4.945-0.389-9.915-0.7-14.905-0.906-4.173-0.171-8.361-0.266-12.565-0.266-4.074 0-8.060 0.091-11.977 0.266-8.257 0.367-16.205 1.096-24.034 2.092-4.777 0.609-9.51 1.312-14.239 2.094-3.931 0.65-7.859 1.353-11.809 2.093-3.563 0.667-7.145 1.369-10.761 2.094-3.398 0.68-6.827 1.38-10.305 2.092-3.36 0.689-6.762 1.389-10.22 2.094-3.19 0.65-6.424 1.302-9.72 1.952l-102.857-51.575 0.496 1.491 0.695 2.092 0.697 2.094 0.695 2.093 1.394 4.184 0.695 2.092 0.695 2.094 0.697 2.093 0.695 2.094 0.697 2.092 0.695 2.094 0.695 2.092 0.697 2.093 0.695 2.094 0.697 2.093 0.695 2.092 0.697 2.093 0.695 2.092 0.697 2.094 0.695 2.093 0.697 2.094 0.695 2.092 0.695 2.094 1.394 4.184 0.695 2.094 0.697 2.093 0.695 2.092 0.697 2.093 0.695 2.092 0.695 2.094 0.697 2.093 0.695 2.093 0.697 2.092 0.695 2.094 0.697 2.092 1.39 4.186 0.697 2.094 0.695 2.092 0.697 2.092 0.406 1.222c-0.414 0.289-0.823 0.582-1.233 0.871-0.986 0.695-1.971 1.392-2.946 2.094-0.969 0.695-1.933 1.394-2.893 2.093-0.95 0.695-1.896 1.392-2.834 2.093-0.933 0.695-1.858 1.392-2.78 2.092-0.915 0.695-1.824 1.392-2.729 2.092-0.898 0.695-1.791 1.394-2.68 2.094-0.881 0.695-1.76 1.393-2.633 2.093-0.867 0.697-1.731 1.393-2.586 2.093-0.85 0.695-1.694 1.392-2.534 2.092-0.834 0.695-1.661 1.394-2.485 2.094-0.818 0.695-1.63 1.394-2.44 2.093-0.802 0.695-1.602 1.394-2.395 2.092-0.79 0.697-1.576 1.393-2.356 2.093-0.774 0.695-1.542 1.394-2.303 2.094-0.758 0.695-1.509 1.392-2.259 2.092-0.744 0.695-1.485 1.393-2.219 2.093-0.731 0.695-1.458 1.392-2.181 2.092-0.716 0.697-1.431 1.394-2.139 2.093-0.702 0.695-1.395 1.394-2.089 2.094-0.69 0.695-1.373 1.393-2.054 2.093-0.675 0.695-1.349 1.392-2.016 2.092-0.664 0.697-1.328 1.394-1.982 2.094-0.65 0.695-1.289 1.393-1.93 2.092-0.636 0.695-1.268 1.395-1.896 2.094-0.625 0.697-1.248 1.393-1.863 2.093-0.612 0.695-1.224 1.394-1.828 2.094-0.601 0.695-1.191 1.393-1.782 2.092-0.587 0.697-1.172 1.395-1.751 2.093-0.576 0.697-1.152 1.394-1.719 2.092-0.565 0.697-1.123 1.395-1.677 2.093-0.552 0.697-1.096 1.394-1.641 2.094-0.54 0.695-1.079 1.392-1.612 2.093-0.53 0.695-1.060 1.394-1.581 2.092-0.519 0.695-1.026 1.395-1.535 2.094-0.508 0.697-1.011 1.393-1.51 2.093-0.496 0.697-0.994 1.392-1.482 2.092-0.484 0.695-0.963 1.393-1.439 2.093-0.475 0.695-0.945 1.395-1.41 2.094-0.465 0.697-0.93 1.392-1.387 2.092-0.453 0.697-0.901 1.395-1.345 2.093s-0.881 1.395-1.315 2.093c-0.434 0.695-0.867 1.392-1.292 2.092-0.423 0.697-0.84 1.395-1.257 2.094-0.412 0.695-0.818 1.395-1.222 2.093s-0.806 1.394-1.2 2.092c-0.393 0.697-0.78 1.394-1.167 2.094-0.382 0.697-0.758 1.395-1.134 2.093-0.374 0.697-0.749 1.392-1.114 2.092-0.364 0.697-0.721 1.393-1.077 2.093-0.356 0.695-0.705 1.394-1.051 2.094-0.346 0.697-0.692 1.393-1.029 2.092-0.336 0.695-0.664 1.393-0.992 2.093-0.327 0.695-0.649 1.393-0.969 2.092-0.318 0.697-0.638 1.393-0.948 2.093-0.31 0.695-0.609 1.395-0.909 2.094-0.3 0.695-0.597 1.393-0.889 2.093-0.292 0.697-0.582 1.392-0.865 2.092-0.282 0.695-0.557 1.393-0.831 2.093-0.274 0.697-0.546 1.393-0.813 2.092-0.266 0.697-0.525 1.394-0.783 2.094-0.256 0.697-0.508 1.395-0.755 2.093-0.248 0.697-0.499 1.394-0.741 2.094-0.238 0.695-0.469 1.393-0.702 2.092-0.23 0.697-0.458 1.394-0.682 2.094-0.223 0.697-0.445 1.393-0.662 2.092-0.214 0.697-0.421 1.395-0.629 2.093-0.207 0.697-0.414 1.394-0.613 2.094-0.2 0.695-0.39 1.393-0.581 2.093-0.191 0.697-0.379 1.394-0.563 2.092s-0.365 1.393-0.541 2.093c-0.175 0.697-0.341 1.395-0.509 2.092s-0.336 1.394-0.496 2.094c-0.16 0.697-0.311 1.395-0.464 2.093-0.153 0.697-0.302 1.394-0.445 2.094-0.145 0.697-0.289 1.393-0.426 2.092-0.137 0.697-0.266 1.395-0.395 2.094-0.129 0.697-0.263 1.393-0.385 2.092-0.121 0.697-0.233 1.395-0.349 2.093-0.115 0.697-0.227 1.394-0.335 2.094-0.107 0.697-0.211 1.393-0.311 2.093-0.099 0.695-0.194 1.394-0.288 2.092s-0.187 1.393-0.274 2.093c-0.085 0.697-0.162 1.395-0.239 2.094-0.079 0.697-0.159 1.392-0.23 2.092-0.071 0.697-0.134 1.395-0.199 2.093s-0.127 1.394-0.184 2.093c-0.057 0.697-0.113 1.394-0.164 2.092-0.050 0.695-0.095 1.394-0.139 2.092s-0.090 1.395-0.126 2.094c-0.038 0.697-0.063 1.395-0.095 2.093-0.030 0.697-0.062 1.394-0.086 2.094-0.023 0.695-0.038 1.394-0.054 2.092-0.018 0.699-0.031 1.395-0.044 2.094-0.008 0.697-0.011 1.395-0.016 2.092-0.002 0.359-0.010 0.714-0.010 1.073 0 0.341 0.013 0.678 0.014 1.020 0.003 0.7 0.021 1.395 0.031 2.094s0.014 1.397 0.031 2.093c0.016 0.697 0.030 1.395 0.054 2.092 0.023 0.7 0.063 1.397 0.093 2.093 0.030 0.699 0.057 1.395 0.093 2.092 0.036 0.699 0.067 1.398 0.109 2.094 0.042 0.7 0.104 1.395 0.155 2.093 0.049 0.698 0.098 1.397 0.155 2.094s0.101 1.397 0.167 2.092c0.063 0.702 0.146 1.395 0.217 2.094s0.14 1.397 0.217 2.092c0.077 0.697 0.142 1.398 0.225 2.093 0.085 0.7 0.187 1.395 0.279 2.094 0.091 0.698 0.184 1.396 0.28 2.093 0.098 0.697 0.181 1.397 0.286 2.092 0.104 0.701 0.231 1.395 0.343 2.093s0.225 1.397 0.343 2.094c0.119 0.697 0.223 1.398 0.348 2.092 0.126 0.7 0.275 1.395 0.408 2.094s0.266 1.397 0.406 2.093c0.139 0.697 0.266 1.397 0.412 2.092 0.146 0.702 0.316 1.395 0.47 2.094s0.308 1.397 0.47 2.093c0.162 0.697 0.312 1.397 0.48 2.092 0.168 0.702 0.357 1.395 0.533 2.093 0.176 0.699 0.351 1.397 0.533 2.094 0.184 0.697 0.359 1.397 0.55 2.092 0.191 0.701 0.401 1.395 0.599 2.093s0.395 1.397 0.601 2.092c0.206 0.698 0.408 1.398 0.62 2.093 0.214 0.7 0.444 1.395 0.664 2.094 0.22 0.697 0.437 1.397 0.664 2.093 0.23 0.699 0.46 1.397 0.695 2.092 0.236 0.702 0.488 1.397 0.733 2.094 0.244 0.697 0.48 1.397 0.731 2.092 0.253 0.7 0.513 1.397 0.772 2.094 0.261 0.7 0.532 1.397 0.799 2.093 0.268 0.697 0.524 1.398 0.798 2.094 0.277 0.7 0.569 1.393 0.853 2.092 0.286 0.7 0.574 1.397 0.867 2.093 0.293 0.697 0.571 1.398 0.87 2.092 0.302 0.703 0.626 1.395 0.935 2.093 0.31 0.698 0.62 1.398 0.936 2.093 0.318 0.698 0.631 1.398 0.956 2.093 0.328 0.7 0.67 1.394 1.007 2.092 0.335 0.698 0.665 1.398 1.007 2.094 0.345 0.7 0.695 1.395 1.048 2.092 0.354 0.7 0.716 1.397 1.079 2.093 0.36 0.697 0.71 1.4 1.079 2.093 0.371 0.702 0.763 1.395 1.143 2.094 0.382 0.698 0.763 1.397 1.152 2.092 0.389 0.699 0.775 1.4 1.172 2.094 0.399 0.702 0.816 1.395 1.224 2.092 0.409 0.698 0.81 1.4 1.227 2.093 0.42 0.702 0.85 1.397 1.276 2.094 0.429 0.7 0.865 1.397 1.302 2.093s0.865 1.398 1.31 2.092c0.45 0.703 0.92 1.395 1.378 2.094s0.914 1.398 1.38 2.092c0.472 0.7 0.948 1.399 1.425 2.094 0.483 0.7 0.971 1.397 1.46 2.093 0.491 0.697 0.971 1.4 1.468 2.094 0.504 0.701 1.029 1.393 1.542 2.092s1.021 1.4 1.542 2.094c0.527 0.7 1.062 1.397 1.597 2.092 0.538 0.7 1.080 1.397 1.627 2.093 0.546 0.698 1.092 1.4 1.648 2.094 0.563 0.703 1.142 1.395 1.715 2.093 0.571 0.697 1.132 1.4 1.711 2.092 0.589 0.703 1.196 1.395 1.795 2.093 0.599 0.699 1.196 1.399 1.803 2.092 0.615 0.702 1.233 1.398 1.856 2.094 0.626 0.701 1.261 1.398 1.896 2.093 0.642 0.698 1.277 1.4 1.925 2.093 0.658 0.702 1.326 1.395 1.992 2.092 0.667 0.697 1.323 1.402 1.999 2.092 0.689 0.705 1.395 1.397 2.094 2.094s1.387 1.401 2.093 2.093c0.719 0.705 1.455 1.395 2.185 2.094 0.731 0.698 1.457 1.401 2.196 2.092 0.752 0.705 1.518 1.398 2.279 2.094 0.765 0.7 1.53 1.4 2.306 2.092 0.786 0.703 1.582 1.398 2.379 2.093 0.802 0.702 1.606 1.402 2.418 2.094 0.826 0.703 1.658 1.398 2.492 2.093 0.842 0.7 1.687 1.4 2.539 2.092 0.865 0.705 1.739 1.4 2.614 2.093 0.884 0.7 1.768 1.402 2.663 2.092 0.909 0.705 1.831 1.398 2.751 2.094 0.928 0.7 1.856 1.403 2.795 2.093 0.959 0.705 1.93 1.398 2.901 2.094 0.975 0.698 1.946 1.404 2.932 2.092 1.015 0.708 2.048 1.398 3.072 2.093 1.031 0.7 2.059 1.405 3.102 2.092 1.070 0.706 2.155 1.4 3.237 2.093 1.096 0.703 2.196 1.403 3.303 2.094 1.129 0.703 2.262 1.403 3.404 2.093 1.17 0.706 2.35 1.4 3.532 2.092 1.196 0.701 2.39 1.406 3.599 2.093 1.248 0.708 2.509 1.4 3.772 2.092 1.285 0.707 2.581 1.403 3.881 2.094 1.325 0.701 2.644 1.408 3.984 2.093 1.39 0.711 2.797 1.4 4.201 2.094 1.438 0.708 2.885 1.404 4.337 2.092 1.49 0.705 2.981 1.41 4.488 2.094 1.562 0.709 3.132 1.406 4.71 2.092 1.639 0.713 3.292 1.406 4.95 2.093 1.716 0.713 3.444 1.408 5.18 2.093 1.806 0.711 3.62 1.411 5.446 2.093 1.908 0.713 3.824 1.413 5.754 2.092 2.033 0.716 4.074 1.414 6.13 2.093 2.18 0.718 4.373 1.416 6.577 2.092 2.361 0.725 4.736 1.419 7.124 2.093 2.587 0.73 5.193 1.422 7.812 2.093 2.873 0.736 5.768 1.431 8.678 2.093 3.253 0.741 6.525 1.444 9.82 2.092 3.906 0.769 7.848 1.458 11.812 2.094 5.021 0.802 10.106 1.501 15.232 2.089 12.595 1.443 25.434 2.212 38.468 2.266h2.986c13.039-0.058 25.933-0.821 38.611-2.266 5.126-0.585 10.213-1.29 15.268-2.092 3.987-0.632 7.953-1.328 11.892-2.094 3.347-0.649 6.676-1.348 9.984-2.092 2.948-0.662 5.883-1.357 8.797-2.093 2.641-0.667 5.263-1.367 7.875-2.093 2.424-0.672 4.835-1.37 7.236-2.093 2.245-0.675 4.48-1.373 6.701-2.092 2.098-0.678 4.183-1.377 6.26-2.093 1.969-0.68 3.928-1.378 5.878-2.092 1.863-0.682 3.717-1.381 5.562-2.093 1.768-0.684 3.528-1.381 5.281-2.093 1.688-0.685 3.368-1.381 5.038-2.093 1.617-0.687 3.224-1.382 4.824-2.092 1.551-0.69 3.1-1.384 4.636-2.094 1.481-0.686 2.952-1.387 4.422-2.092 1.428-0.687 2.844-1.389 4.257-2.094 1.38-0.689 2.756-1.385 4.123-2.093 1.336-0.692 2.674-1.384 3.999-2.094 1.285-0.687 2.561-1.389 3.834-2.092 1.244-0.69 2.484-1.39 3.717-2.093 1.213-0.694 2.424-1.386 3.626-2.092 1.175-0.692 2.341-1.389 3.503-2.093 1.137-0.691 2.267-1.391 3.393-2.094 1.111-0.693 2.226-1.387 3.327-2.093 1.075-0.689 2.143-1.391 3.207-2.092 1.048-0.692 2.089-1.39 3.127-2.093 1.026-0.695 2.057-1.386 3.072-2.092 0.992-0.691 1.969-1.394 2.95-2.094 0.974-0.693 1.946-1.389 2.909-2.093 0.946-0.692 1.888-1.39 2.824-2.094 0.922-0.69 1.84-1.391 2.753-2.092 0.906-0.695 1.811-1.389 2.705-2.093 0.879-0.69 1.744-1.392 2.614-2.092 0.865-0.697 1.736-1.389 2.591-2.093 0.837-0.691 1.659-1.395 2.487-2.094 0.824-0.695 1.651-1.389 2.465-2.093 0.801-0.691 1.591-1.392 2.382-2.092 0.788-0.695 1.575-1.39 2.351-2.094 0.769-0.692 1.527-1.392 2.286-2.092 0.752-0.695 1.501-1.392 2.243-2.094 0.736-0.693 1.463-1.392 2.19-2.093 0.719-0.695 1.434-1.392 2.146-2.094 0.703-0.693 1.401-1.392 2.097-2.092 0.689-0.695 1.374-1.392 2.053-2.092 0.673-0.695 1.343-1.393 2.009-2.093 0.659-0.695 1.315-1.392 1.966-2.093 0.646-0.694 1.285-1.394 1.922-2.094 0.631-0.695 1.261-1.392 1.886-2.092 0.617-0.695 1.229-1.395 1.837-2.093 0.607-0.695 1.211-1.392 1.809-2.092 0.59-0.693 1.174-1.395 1.757-2.093 0.581-0.697 1.165-1.392 1.738-2.094 0.566-0.693 1.119-1.395 1.677-2.093s1.125-1.39 1.672-2.092c0.541-0.694 1.067-1.397 1.6-2.094s1.073-1.392 1.6-2.093c0.519-0.692 1.021-1.395 1.532-2.092s1.023-1.392 1.525-2.093c0.497-0.695 0.985-1.395 1.475-2.094 0.488-0.695 0.971-1.392 1.45-2.092 0.477-0.695 0.952-1.394 1.419-2.094 0.467-0.695 0.922-1.393 1.38-2.092s0.92-1.392 1.369-2.093c0.444-0.694 0.873-1.395 1.309-2.094 0.436-0.698 0.879-1.39 1.309-2.093 0.425-0.694 0.834-1.394 1.249-2.092 0.416-0.695 0.832-1.392 1.24-2.094 0.404-0.695 0.807-1.393 1.205-2.092 0.395-0.695 0.783-1.395 1.17-2.094 0.388-0.698 0.783-1.392 1.163-2.093 0.377-0.694 0.734-1.395 1.104-2.093 0.367-0.697 0.742-1.392 1.104-2.092 0.357-0.695 0.703-1.395 1.054-2.094 0.351-0.695 0.697-1.393 1.039-2.092 0.341-0.697 0.686-1.393 1.018-2.093 0.332-0.695 0.65-1.395 0.972-2.093 0.324-0.697 0.658-1.392 0.974-2.093 0.315-0.694 0.612-1.395 0.919-2.092 0.305-0.697 0.61-1.393 0.909-2.093 0.297-0.697 0.596-1.394 0.886-2.092 0.288-0.695 0.565-1.397 0.845-2.094 0.282-0.698 0.573-1.392 0.847-2.093 0.271-0.695 0.527-1.395 0.791-2.094 0.264-0.697 0.525-1.393 0.782-2.092 0.258-0.697 0.514-1.394 0.763-2.094 0.247-0.695 0.48-1.395 0.719-2.092 0.239-0.698 0.489-1.393 0.722-2.093 0.231-0.695 0.449-1.395 0.673-2.094 0.224-0.697 0.442-1.395 0.659-2.093 0.215-0.697 0.439-1.392 0.648-2.092 0.208-0.695 0.4-1.397 0.599-2.093 0.201-0.697 0.406-1.394 0.599-2.092 0.192-0.697 0.379-1.395 0.563-2.094 0.186-0.697 0.362-1.395 0.54-2.093 0.178-0.697 0.368-1.392 0.538-2.092 0.17-0.695 0.318-1.397 0.481-2.093s0.322-1.394 0.478-2.094c0.101-0.452 0.212-0.904 0.312-1.357v-0.014c-5.315 0.594-10.657 1.071-16.024 1.372-4.085 0.23-8.185 0.357-12.306 0.357-4.683 0-9.328-0.126-13.941-0.357-7.675-0.388-15.249-1.090-22.712-2.092-4.423-0.596-8.808-1.29-13.147-2.093-3.415-0.633-6.8-1.334-10.16-2.094-2.904-0.656-5.792-1.345-8.652-2.092-2.528-0.659-5.035-1.362-7.526-2.094-2.274-0.667-4.532-1.367-6.775-2.093-2.083-0.672-4.153-1.37-6.208-2.092-1.927-0.677-3.84-1.373-5.744-2.093-1.798-0.678-3.585-1.377-5.361-2.094-1.688-0.68-3.369-1.376-5.040-2.093-1.595-0.684-3.187-1.377-4.763-2.092-1.516-0.686-3.028-1.378-4.527-2.094-1.433-0.682-2.85-1.385-4.264-2.092-1.372-0.686-2.731-1.386-4.087-2.094-1.318-0.689-2.628-1.384-3.931-2.093-1.268-0.691-2.537-1.382-3.79-2.094-1.208-0.684-2.403-1.389-3.598-2.092-1.168-0.688-2.327-1.387-3.48-2.093-1.132-0.692-2.265-1.384-3.383-2.092-1.087-0.689-2.163-1.39-3.237-2.093-1.052-0.689-2.097-1.391-3.135-2.094-1.026-0.693-2.054-1.385-3.067-2.093-0.984-0.687-1.955-1.392-2.926-2.092-0.961-0.694-1.916-1.389-2.863-2.094-0.933-0.692-1.863-1.387-2.785-2.092-0.901-0.691-1.791-1.392-2.682-2.094-0.884-0.697-1.773-1.385-2.646-2.093-0.851-0.689-1.685-1.394-2.526-2.094-0.834-0.693-1.669-1.387-2.493-2.092-0.809-0.692-1.607-1.392-2.405-2.092-0.79-0.693-1.576-1.39-2.356-2.093-0.771-0.693-1.534-1.392-2.292-2.093-0.75-0.694-1.493-1.392-2.232-2.092-0.731-0.695-1.461-1.39-2.185-2.094-0.711-0.692-1.414-1.393-2.117-2.093-0.697-0.695-1.393-1.39-2.081-2.092-0.678-0.693-1.345-1.393-2.013-2.093-0.664-0.697-1.328-1.391-1.984-2.094-0.646-0.692-1.281-1.393-1.917-2.093-0.631-0.695-1.265-1.39-1.889-2.092-0.615-0.694-1.222-1.394-1.829-2.094-0.604-0.695-1.205-1.39-1.801-2.092-0.587-0.694-1.168-1.394-1.749-2.094-0.574-0.695-1.145-1.392-1.711-2.093-0.561-0.695-1.121-1.392-1.674-2.094-0.548-0.693-1.088-1.392-1.628-2.092-0.536-0.695-1.075-1.39-1.604-2.093-0.522-0.694-1.033-1.393-1.546-2.092-0.514-0.698-1.035-1.39-1.538-2.093-0.497-0.692-0.98-1.395-1.47-2.094-0.489-0.698-0.985-1.39-1.468-2.093-0.475-0.692-0.936-1.395-1.403-2.092s-0.933-1.392-1.392-2.094c-0.455-0.693-0.903-1.393-1.349-2.092-0.444-0.695-0.882-1.395-1.318-2.094-0.434-0.697-0.871-1.392-1.299-2.093-0.421-0.694-0.832-1.395-1.246-2.094-0.414-0.697-0.838-1.39-1.246-2.092-0.401-0.694-0.786-1.397-1.181-2.093-0.393-0.695-0.79-1.392-1.175-2.092-0.384-0.695-0.762-1.395-1.139-2.093-0.374-0.695-0.741-1.394-1.106-2.094-0.367-0.697-0.741-1.39-1.1-2.093-0.354-0.694-0.692-1.395-1.040-2.092-0.346-0.697-0.7-1.392-1.040-2.093-0.338-0.695-0.665-1.394-0.996-2.092-0.33-0.695-0.653-1.395-0.974-2.094-0.321-0.698-0.648-1.392-0.961-2.093-0.312-0.694-0.605-1.395-0.909-2.092-0.305-0.697-0.613-1.392-0.911-2.093zM928.736 353.15v-2.075c-0.007-0.492-0.009-0.987-0.023-1.48-0.014-0.594-0.035-1.186-0.055-1.779-0.021-0.594-0.045-1.186-0.072-1.777-0.030-0.594-0.058-1.185-0.093-1.776-0.034-0.594-0.077-1.186-0.119-1.779s-0.079-1.186-0.127-1.776c-0.050-0.594-0.109-1.186-0.165-1.779-0.057-0.592-0.113-1.184-0.176-1.776-0.062-0.594-0.132-1.186-0.201-1.779-0.070-0.594-0.145-1.186-0.222-1.779-0.079-0.592-0.153-1.186-0.238-1.776-0.083-0.594-0.176-1.185-0.267-1.779-0.093-0.591-0.183-1.184-0.28-1.776-0.098-0.595-0.204-1.186-0.308-1.779-0.104-0.594-0.214-1.186-0.326-1.779s-0.227-1.185-0.346-1.776c-0.121-0.594-0.248-1.185-0.376-1.779-0.126-0.592-0.252-1.186-0.385-1.776-0.134-0.594-0.275-1.186-0.415-1.779-0.142-0.592-0.286-1.184-0.434-1.776-0.146-0.594-0.299-1.186-0.453-1.779s-0.316-1.185-0.48-1.776c-0.162-0.594-0.322-1.186-0.493-1.779-0.17-0.594-0.347-1.186-0.524-1.779-0.178-0.591-0.357-1.184-0.541-1.776-0.184-0.594-0.368-1.186-0.56-1.779s-0.392-1.184-0.589-1.776c-0.199-0.594-0.398-1.186-0.604-1.779-0.208-0.594-0.418-1.186-0.629-1.776-0.214-0.595-0.432-1.186-0.653-1.779s-0.439-1.186-0.666-1.776c-0.228-0.594-0.465-1.186-0.7-1.779s-0.473-1.186-0.715-1.776c-0.243-0.594-0.488-1.187-0.738-1.779-0.25-0.594-0.506-1.186-0.763-1.779s-0.514-1.186-0.778-1.776c-0.266-0.594-0.537-1.186-0.807-1.779-0.272-0.594-0.55-1.186-0.829-1.776-0.279-0.594-0.558-1.186-0.843-1.779-0.289-0.595-0.584-1.186-0.878-1.776-0.296-0.594-0.592-1.186-0.894-1.779-0.304-0.592-0.606-1.186-0.915-1.776-0.31-0.596-0.628-1.186-0.945-1.779s-0.634-1.186-0.96-1.776c-0.324-0.594-0.654-1.188-0.985-1.779-0.333-0.595-0.672-1.186-1.013-1.779-0.339-0.591-0.68-1.186-1.027-1.776-0.349-0.596-0.701-1.186-1.057-1.779-0.357-0.594-0.718-1.186-1.081-1.777-0.363-0.594-0.728-1.187-1.098-1.779-0.372-0.594-0.75-1.186-1.129-1.776-0.38-0.596-0.765-1.186-1.15-1.779-0.388-0.594-0.775-1.186-1.17-1.776-0.395-0.594-0.796-1.186-1.199-1.779-0.404-0.596-0.813-1.186-1.224-1.776-0.411-0.594-0.824-1.187-1.241-1.779-0.421-0.594-0.843-1.186-1.271-1.777-0.428-0.594-0.862-1.186-1.298-1.776-0.435-0.594-0.873-1.188-1.315-1.779-0.445-0.594-0.892-1.186-1.343-1.776-0.453-0.596-0.914-1.186-1.372-1.779-0.462-0.595-0.924-1.188-1.392-1.779-0.47-0.594-0.939-1.186-1.416-1.776-0.478-0.594-0.964-1.186-1.449-1.779-0.486-0.594-0.977-1.186-1.469-1.776-0.496-0.594-0.991-1.187-1.491-1.779-0.506-0.594-1.015-1.186-1.524-1.776-0.514-0.596-1.031-1.188-1.551-1.779-0.521-0.594-1.044-1.188-1.573-1.779-0.53-0.594-1.060-1.186-1.597-1.776-0.541-0.596-1.087-1.186-1.633-1.779-0.55-0.595-1.1-1.186-1.656-1.776-0.558-0.594-1.115-1.188-1.679-1.779-0.568-0.594-1.139-1.186-1.711-1.779-0.577-0.594-1.158-1.186-1.741-1.776-0.585-0.594-1.175-1.186-1.765-1.776-0.596-0.596-1.191-1.188-1.791-1.779-0.605-0.594-1.214-1.188-1.824-1.779-0.615-0.594-1.235-1.186-1.857-1.776-0.623-0.594-1.252-1.188-1.883-1.779-0.633-0.594-1.269-1.186-1.908-1.776-0.645-0.594-1.292-1.188-1.941-1.779-0.656-0.596-1.315-1.186-1.977-1.777-0.665-0.596-1.332-1.186-2.004-1.776-0.675-0.596-1.353-1.188-2.034-1.779-0.685-0.594-1.372-1.186-2.062-1.776-0.697-0.596-1.397-1.188-2.1-1.779-0.708-0.594-1.419-1.186-2.134-1.776-0.719-0.596-1.441-1.188-2.166-1.779-0.731-0.596-1.463-1.188-2.199-1.779-0.739-0.594-1.481-1.186-2.229-1.776-0.752-0.596-1.507-1.187-2.265-1.779-0.764-0.596-1.535-1.186-2.304-1.776-0.779-0.596-1.56-1.188-2.341-1.779l-0.813-0.615 0.349-1.161 1.070-3.556 2.676-8.887 0.533-1.779 0.535-1.776 0.535-1.779 0.535-1.776 0.535-1.779 0.535-1.776 1.070-3.557 0.535-1.776 0.535-1.779 0.535-1.776 0.535-1.779 0.535-1.776 0.535-1.779 0.533-1.776 0.537-1.779 0.533-1.776 1.070-3.557 0.535-1.776 0.535-1.779 0.535-1.776 0.535-1.779 0.533-1.776 0.535-1.779 0.535-1.776 1.070-3.557 0.535-1.776 0.535-1.779 0.535-1.776 1.070-3.557 0.38-1.268-80.711 44.211-1.114-0.279c-2.37-0.596-4.743-1.188-7.113-1.779-2.408-0.599-4.818-1.191-7.226-1.776-2.482-0.604-4.964-1.197-7.448-1.779-2.605-0.61-5.211-1.202-7.816-1.776-2.803-0.618-5.608-1.214-8.411-1.779-3.137-0.633-6.273-1.228-9.407-1.776-3.799-0.666-7.593-1.263-11.387-1.779-6.135-0.834-12.264-1.447-18.384-1.776-3.33-0.179-6.655-0.276-9.978-0.276-4.348 0-8.666 0.093-12.954 0.276-7.47 0.316-14.838 0.923-22.106 1.776-4.285 0.502-8.53 1.095-12.74 1.779-3.332 0.54-6.645 1.126-9.924 1.776-2.78 0.55-5.537 1.149-8.278 1.779-2.455 0.562-4.895 1.153-7.321 1.776-2.209 0.569-4.406 1.16-6.589 1.779-2.018 0.571-4.027 1.163-6.020 1.776-1.863 0.574-3.715 1.167-5.557 1.779-1.738 0.574-3.464 1.17-5.182 1.776-1.634 0.577-3.256 1.174-4.872 1.779-1.545 0.581-3.081 1.173-4.609 1.779-1.47 0.581-2.934 1.172-4.387 1.776-1.403 0.585-2.806 1.172-4.192 1.779-1.328 0.579-2.64 1.178-3.951 1.776-1.276 0.582-2.542 1.176-3.805 1.779-1.232 0.585-2.462 1.175-3.679 1.776-1.18 0.584-2.355 1.178-3.522 1.779-1.134 0.582-2.257 1.178-3.38 1.776-1.101 0.589-2.206 1.176-3.295 1.779-1.060 0.585-2.111 1.18-3.16 1.776-1.026 0.587-2.045 1.181-3.061 1.779-1.002 0.59-2.007 1.175-2.997 1.777-0.961 0.583-1.905 1.183-2.854 1.777-0.939 0.589-1.881 1.178-2.811 1.779-0.909 0.585-1.811 1.181-2.71 1.776-0.886 0.587-1.767 1.181-2.641 1.779-0.863 0.589-1.726 1.178-2.58 1.776-0.837 0.587-1.663 1.183-2.49 1.779-0.821 0.59-1.642 1.178-2.454 1.776-0.793 0.585-1.573 1.185-2.358 1.779-0.78 0.592-1.567 1.179-2.338 1.779-0.754 0.585-1.491 1.183-2.235 1.776s-1.493 1.18-2.229 1.779c-0.716 0.585-1.417 1.185-2.125 1.776-0.708 0.594-1.424 1.18-2.124 1.779-0.684 0.585-1.351 1.184-2.026 1.776s-1.356 1.18-2.023 1.777c-0.654 0.587-1.293 1.185-1.94 1.779-0.645 0.59-1.29 1.18-1.927 1.776-0.625 0.587-1.24 1.185-1.856 1.779-0.615 0.59-1.232 1.181-1.839 1.776-0.599 0.589-1.191 1.185-1.784 1.779-0.585 0.59-1.172 1.183-1.751 1.779-0.574 0.589-1.145 1.181-1.713 1.776-0.562 0.589-1.114 1.184-1.667 1.779-0.552 0.592-1.108 1.18-1.652 1.776-0.536 0.587-1.059 1.186-1.587 1.779s-1.063 1.18-1.584 1.776c-0.513 0.589-1.011 1.186-1.518 1.779-0.506 0.591-1.011 1.181-1.509 1.779-0.492 0.588-0.98 1.183-1.465 1.776-0.483 0.59-0.96 1.183-1.434 1.779-0.473 0.59-0.952 1.18-1.419 1.776-0.46 0.589-0.906 1.186-1.359 1.779s-0.914 1.18-1.359 1.776c-0.442 0.589-0.873 1.185-1.309 1.779-0.432 0.59-0.862 1.183-1.287 1.776s-0.851 1.183-1.269 1.779c-0.412 0.589-0.815 1.185-1.222 1.779-0.406 0.592-0.821 1.181-1.22 1.776-0.395 0.589-0.779 1.185-1.167 1.779-0.387 0.59-0.772 1.183-1.153 1.776-0.379 0.592-0.763 1.183-1.136 1.777-0.37 0.589-0.726 1.185-1.090 1.779-0.362 0.592-0.731 1.18-1.088 1.776-0.352 0.589-0.697 1.185-1.045 1.779-0.344 0.588-0.685 1.183-1.024 1.776s-0.687 1.181-1.019 1.779c-0.328 0.587-0.64 1.186-0.963 1.776-0.323 0.592-0.646 1.183-0.963 1.779-0.313 0.59-0.626 1.183-0.936 1.777-0.305 0.59-0.601 1.184-0.901 1.779-0.3 0.592-0.607 1.181-0.903 1.776-0.291 0.59-0.569 1.185-0.854 1.779-0.284 0.59-0.563 1.183-0.842 1.779-0.277 0.592-0.566 1.181-0.839 1.776-0.267 0.589-0.522 1.186-0.783 1.779-0.264 0.59-0.527 1.183-0.783 1.776s-0.514 1.183-0.765 1.779c-0.248 0.589-0.485 1.184-0.726 1.776-0.242 0.594-0.489 1.183-0.725 1.779-0.235 0.59-0.467 1.184-0.695 1.776-0.228 0.59-0.445 1.185-0.667 1.779-0.222 0.592-0.453 1.183-0.669 1.776-0.214 0.592-0.418 1.186-0.626 1.779-0.209 0.59-0.411 1.185-0.613 1.779-0.203 0.592-0.416 1.181-0.612 1.776-0.194 0.59-0.371 1.186-0.561 1.779-0.189 0.59-0.374 1.184-0.558 1.776-0.181 0.595-0.379 1.183-0.555 1.779-0.175 0.589-0.332 1.186-0.5 1.776-0.17 0.592-0.338 1.184-0.502 1.779-0.163 0.592-0.337 1.183-0.494 1.776-0.155 0.59-0.296 1.188-0.447 1.779s-0.302 1.185-0.447 1.776c-0.145 0.595-0.297 1.185-0.437 1.779-0.139 0.59-0.26 1.186-0.393 1.779s-0.266 1.185-0.393 1.776c-0.127 0.594-0.258 1.184-0.38 1.779-0.119 0.59-0.224 1.186-0.34 1.776-0.115 0.594-0.231 1.185-0.341 1.779-0.107 0.592-0.22 1.184-0.323 1.776s-0.191 1.186-0.288 1.779c-0.098 0.591-0.197 1.184-0.289 1.779-0.090 0.592-0.183 1.183-0.269 1.776-0.085 0.59-0.157 1.186-0.236 1.779-0.078 0.592-0.16 1.183-0.235 1.776-0.074 0.594-0.15 1.185-0.217 1.779-0.069 0.59-0.121 1.184-0.183 1.776-0.062 0.594-0.126 1.185-0.182 1.779-0.055 0.592-0.118 1.184-0.168 1.779-0.050 0.59-0.087 1.185-0.131 1.776s-0.090 1.186-0.131 1.779c-0.039 0.592-0.083 1.183-0.118 1.776-0.034 0.59-0.050 1.186-0.078 1.779l-0.079 1.776c-0.021 0.594-0.052 1.184-0.072 1.777-0.016 0.59-0.013 1.186-0.025 1.779l-0.028 1.776c-0.005 0.573-0.025 1.144-0.025 1.718l0.002 0.060c0 0.594 0.019 1.184 0.025 1.776 0.006 0.595 0.016 1.186 0.028 1.779s0.009 1.186 0.026 1.776c0.016 0.594 0.052 1.185 0.074 1.779 0.023 0.594 0.050 1.186 0.078 1.779 0.030 0.59 0.046 1.186 0.079 1.776 0.034 0.594 0.085 1.186 0.124 1.779 0.039 0.594 0.085 1.184 0.129 1.776 0.046 0.592 0.080 1.188 0.132 1.779 0.050 0.594 0.115 1.185 0.171 1.779 0.057 0.592 0.121 1.184 0.183 1.776s0.115 1.186 0.182 1.779c0.069 0.592 0.15 1.184 0.224 1.776 0.074 0.594 0.157 1.186 0.236 1.779 0.080 0.59 0.148 1.186 0.234 1.776 0.085 0.594 0.183 1.185 0.275 1.779s0.189 1.184 0.288 1.776c0.096 0.592 0.184 1.188 0.288 1.779 0.104 0.594 0.22 1.185 0.33 1.779 0.109 0.592 0.225 1.184 0.341 1.776 0.114 0.592 0.22 1.188 0.341 1.779 0.123 0.595 0.256 1.184 0.384 1.776 0.127 0.594 0.261 1.186 0.395 1.779 0.134 0.59 0.256 1.188 0.395 1.776 0.14 0.596 0.294 1.185 0.441 1.779 0.146 0.592 0.297 1.186 0.448 1.776 0.151 0.592 0.291 1.188 0.447 1.779 0.16 0.596 0.336 1.185 0.5 1.779 0.163 0.591 0.332 1.184 0.502 1.776s0.33 1.186 0.506 1.779c0.178 0.594 0.374 1.185 0.557 1.777 0.184 0.594 0.368 1.186 0.558 1.779s0.374 1.187 0.568 1.776c0.197 0.596 0.409 1.186 0.613 1.779 0.203 0.592 0.404 1.186 0.613 1.776 0.209 0.594 0.418 1.188 0.633 1.779 0.217 0.596 0.445 1.184 0.667 1.776 0.223 0.594 0.44 1.187 0.669 1.779 0.23 0.594 0.465 1.186 0.702 1.779 0.238 0.594 0.484 1.184 0.727 1.776 0.245 0.594 0.478 1.189 0.726 1.779 0.251 0.596 0.516 1.184 0.772 1.776 0.258 0.596 0.521 1.186 0.785 1.779 0.263 0.592 0.516 1.188 0.786 1.776 0.272 0.597 0.563 1.184 0.842 1.779s0.558 1.188 0.842 1.776c0.288 0.594 0.571 1.188 0.863 1.779 0.294 0.596 0.601 1.185 0.903 1.776 0.3 0.594 0.594 1.189 0.901 1.779 0.31 0.596 0.628 1.186 0.945 1.779 0.316 0.594 0.638 1.186 0.961 1.776 0.324 0.592 0.636 1.189 0.966 1.779 0.333 0.596 0.686 1.185 1.024 1.776 0.34 0.594 0.677 1.188 1.024 1.779 0.348 0.594 0.697 1.186 1.052 1.776 0.357 0.596 0.725 1.186 1.089 1.779s0.719 1.189 1.090 1.779c0.374 0.596 0.761 1.185 1.142 1.776 0.382 0.596 0.766 1.188 1.155 1.779 0.39 0.594 0.778 1.188 1.175 1.776 0.4 0.598 0.813 1.186 1.22 1.779 0.406 0.592 0.806 1.189 1.219 1.776 0.42 0.597 0.851 1.186 1.277 1.779 0.428 0.594 0.857 1.187 1.29 1.779 0.436 0.594 0.871 1.186 1.313 1.776 0.447 0.598 0.906 1.186 1.361 1.779 0.453 0.592 0.898 1.189 1.359 1.779 0.468 0.597 0.953 1.184 1.428 1.776 0.477 0.594 0.952 1.189 1.433 1.779 0.488 0.596 0.98 1.186 1.475 1.776 0.497 0.596 1.002 1.186 1.507 1.776 0.508 0.594 1.010 1.189 1.524 1.779 0.524 0.597 1.057 1.186 1.587 1.779 0.529 0.592 1.049 1.191 1.584 1.776 0.546 0.599 1.108 1.186 1.661 1.779 0.555 0.594 1.104 1.189 1.666 1.779 0.569 0.596 1.147 1.186 1.722 1.776 0.581 0.596 1.163 1.189 1.751 1.779 0.594 0.596 1.189 1.188 1.792 1.776 0.607 0.596 1.22 1.187 1.836 1.779 0.615 0.594 1.235 1.187 1.861 1.776 0.636 0.598 1.282 1.188 1.927 1.779 0.648 0.594 1.292 1.189 1.948 1.779 0.667 0.597 1.346 1.186 2.021 1.776 0.678 0.594 1.353 1.191 2.039 1.779 0.7 0.599 1.411 1.184 2.12 1.776 0.711 0.594 1.416 1.191 2.136 1.779 0.734 0.599 1.483 1.186 2.226 1.776 0.747 0.594 1.491 1.191 2.246 1.779 0.77 0.599 1.554 1.186 2.336 1.779 0.786 0.594 1.569 1.189 2.364 1.776 0.813 0.599 1.633 1.188 2.454 1.779 0.829 0.596 1.661 1.189 2.501 1.776 0.853 0.598 1.713 1.189 2.576 1.779 0.879 0.598 1.764 1.188 2.651 1.776 0.901 0.596 1.8 1.192 2.709 1.779 0.931 0.601 1.878 1.188 2.821 1.776 0.951 0.596 1.9 1.194 2.863 1.779 0.992 0.6 1.995 1.188 2.997 1.776 1.019 0.599 2.043 1.192 3.074 1.779 1.047 0.598 2.095 1.194 3.155 1.779 1.095 0.602 2.202 1.189 3.308 1.776 1.126 0.599 2.254 1.194 3.392 1.779 1.168 0.598 2.336 1.192 3.516 1.776 1.224 0.604 2.459 1.189 3.695 1.779 1.266 0.6 2.54 1.194 3.821 1.776 1.315 0.601 2.633 1.197 3.963 1.779 1.389 0.604 2.786 1.194 4.191 1.776 1.458 0.607 2.93 1.196 4.403 1.779 1.534 0.606 3.075 1.197 4.627 1.776 1.622 0.607 3.251 1.2 4.891 1.779 1.724 0.609 3.459 1.202 5.202 1.779 1.85 0.61 3.712 1.202 5.585 1.776 2.004 0.615 4.019 1.205 6.046 1.779 2.193 0.618 4.403 1.209 6.626 1.776 2.435 0.625 4.891 1.217 7.36 1.779 2.754 0.626 5.523 1.227 8.317 1.776 3.33 0.654 6.693 1.238 10.078 1.779 4.286 0.686 8.612 1.277 12.978 1.776 10.865 1.241 21.964 1.901 33.263 1.932h1.571c10.675-0.031 21.25-0.69 31.677-1.932 4.189-0.499 8.354-1.091 12.493-1.776 3.266-0.54 6.519-1.124 9.75-1.779 2.708-0.55 5.4-1.15 8.082-1.776 2.403-0.563 4.795-1.153 7.175-1.779 2.168-0.568 4.329-1.158 6.478-1.776 1.983-0.573 3.959-1.163 5.925-1.779 1.839-0.574 3.667-1.167 5.488-1.776 1.716-0.576 3.424-1.17 5.125-1.779 1.618-0.578 3.228-1.172 4.829-1.779 1.532-0.579 3.056-1.172 4.573-1.776 1.46-0.582 2.917-1.172 4.364-1.779 1.393-0.582 2.78-1.173 4.161-1.776 1.321-0.581 2.632-1.178 3.942-1.779 1.274-0.582 2.542-1.177 3.805-1.776 1.232-0.587 2.462-1.175 3.683-1.779 1.178-0.584 2.347-1.18 3.514-1.776 1.139-0.584 2.268-1.18 3.393-1.779 1.108-0.587 2.218-1.175 3.313-1.776 1.062-0.584 2.116-1.181 3.167-1.779 1.035-0.587 2.062-1.18 3.085-1.779 1.007-0.589 2.015-1.177 3.012-1.776 0.969-0.584 1.925-1.183 2.885-1.779 0.952-0.589 1.902-1.176 2.844-1.776 0.917-0.585 1.823-1.183 2.731-1.779 0.897-0.587 1.791-1.18 2.679-1.776 0.873-0.589 1.743-1.181 2.605-1.779 0.848-0.587 1.691-1.181 2.531-1.776 0.831-0.59 1.664-1.18 2.487-1.779 0.805-0.587 1.602-1.183 2.4-1.776 0.791-0.592 1.587-1.18 2.371-1.779 0.769-0.587 1.524-1.184 2.284-1.779 0.755-0.59 1.516-1.178 2.263-1.776 0.731-0.587 1.452-1.185 2.177-1.779 0.721-0.592 1.445-1.178 2.16-1.776 0.7-0.587 1.389-1.185 2.080-1.779 0.689-0.59 1.381-1.18 2.062-1.776 0.67-0.589 1.329-1.184 1.992-1.779 0.659-0.59 1.318-1.181 1.969-1.779 0.642-0.589 1.276-1.183 1.911-1.776 0.631-0.59 1.258-1.183 1.881-1.779 0.616-0.589 1.228-1.181 1.837-1.776 0.602-0.589 1.199-1.183 1.795-1.779 0.59-0.591 1.185-1.181 1.768-1.776 0.576-0.589 1.142-1.184 1.711-1.779s1.147-1.18 1.708-1.779c0.552-0.585 1.087-1.184 1.631-1.776s1.095-1.181 1.631-1.779c0.53-0.589 1.049-1.184 1.573-1.779 0.521-0.59 1.040-1.181 1.553-1.776 0.511-0.59 1.018-1.181 1.522-1.776 0.497-0.589 0.989-1.185 1.48-1.779 0.491-0.592 0.989-1.18 1.473-1.776 0.477-0.589 0.938-1.186 1.408-1.779s0.943-1.181 1.406-1.779c0.458-0.59 0.911-1.184 1.361-1.779 0.45-0.589 0.894-1.183 1.336-1.776 0.44-0.592 0.887-1.181 1.323-1.779 0.429-0.587 0.843-1.184 1.266-1.776s0.85-1.181 1.266-1.779c0.411-0.588 0.815-1.183 1.219-1.776 0.405-0.59 0.803-1.183 1.199-1.779 0.396-0.592 0.799-1.181 1.189-1.776 0.385-0.589 0.755-1.186 1.134-1.779s0.76-1.183 1.134-1.779c0.368-0.59 0.731-1.183 1.095-1.776 0.36-0.59 0.714-1.185 1.068-1.779 0.354-0.592 0.721-1.181 1.068-1.776 0.344-0.589 0.668-1.186 1.007-1.779 0.338-0.59 0.673-1.183 1.005-1.776 0.33-0.592 0.661-1.183 0.983-1.779 0.32-0.589 0.628-1.185 0.943-1.779 0.315-0.591 0.634-1.181 0.943-1.776 0.305-0.59 0.604-1.184 0.904-1.779 0.299-0.589 0.589-1.183 0.881-1.776s0.596-1.181 0.881-1.779c0.282-0.588 0.548-1.185 0.826-1.776 0.275-0.59 0.552-1.183 0.821-1.779 0.269-0.59 0.544-1.181 0.809-1.776 0.259-0.589 0.506-1.185 0.761-1.779 0.255-0.592 0.514-1.183 0.762-1.776s0.494-1.185 0.736-1.779c0.239-0.59 0.47-1.184 0.703-1.779 0.233-0.59 0.475-1.181 0.703-1.776 0.227-0.59 0.445-1.185 0.666-1.779 0.22-0.59 0.433-1.184 0.645-1.776 0.215-0.592 0.439-1.183 0.646-1.779 0.206-0.589 0.398-1.185 0.599-1.776s0.393-1.184 0.587-1.779c0.192-0.592 0.399-1.183 0.587-1.777 0.186-0.591 0.354-1.186 0.533-1.779s0.357-1.185 0.53-1.776c0.175-0.595 0.359-1.183 0.527-1.779 0.167-0.59 0.315-1.186 0.475-1.779 0.16-0.59 0.318-1.184 0.473-1.776 0.153-0.594 0.318-1.183 0.465-1.779 0.148-0.589 0.277-1.186 0.418-1.776 0.141-0.591 0.282-1.184 0.418-1.779 0.135-0.592 0.277-1.183 0.406-1.776 0.129-0.59 0.239-1.186 0.362-1.779s0.244-1.184 0.36-1.776c0.116-0.594 0.238-1.185 0.349-1.779 0.109-0.59 0.201-1.186 0.304-1.779 0.104-0.592 0.209-1.183 0.305-1.776 0.098-0.594 0.203-1.185 0.294-1.779 0.090-0.59 0.164-1.186 0.25-1.776 0.085-0.592 0.171-1.185 0.25-1.779 0.078-0.592 0.165-1.184 0.238-1.776 0.072-0.592 0.127-1.186 0.192-1.779 0.067-0.592 0.134-1.184 0.194-1.776 0.060-0.594 0.129-1.185 0.184-1.779 0.053-0.59 0.091-1.186 0.139-1.779s0.096-1.183 0.138-1.776c0.043-0.592 0.095-1.185 0.132-1.779 0.034-0.59 0.052-1.186 0.081-1.776 0.032-0.592 0.060-1.184 0.084-1.779s0.062-1.185 0.080-1.779c0.018-0.59 0.016-1.184 0.028-1.776s0.023-1.185 0.030-1.779l0.007-0.517v-1.26zM597.691 448.784c-14.651 0-29.431-14.757-29.431-29.431 0-14.881 14.781-29.425 29.431-29.425 22.255 0 36.829 14.543 36.829 29.425 0 14.675-14.575 29.431-36.829 29.431v0zM759.533 448.784c-14.546 0-29.225-14.757-29.225-29.431 0-14.881 14.676-29.425 29.225-29.425 22.056 0 36.832 14.543 36.832 29.425 0 14.675-14.778 29.431-36.832 29.431v0zM296.080 662.204c-22.052 0-44.31-14.571-44.31-36.701 0-22.079 22.258-36.832 44.31-36.832s36.727 14.753 36.727 36.832c0 22.131-14.675 36.701-36.727 36.701v0zM502.002 588.671c22.156 0 36.832 14.753 36.832 36.832 0 22.131-14.676 36.701-36.832 36.701-22.051 0-44.181-14.571-44.181-36.701-0.001-22.079 22.131-36.832 44.181-36.832v0z" />
<glyph unicode="&#xe914;" glyph-name="phone" data-tags="phone" d="M767.992 957.448h-511.984c-53.064 0-96.008-42.968-96.008-96.008v-831.984c0-53.064 42.968-96.008 96.008-96.008h511.992c52.976 0 96.008 43.008 96.008 96.008v831.984c-0.008 53.064-43.016 96.008-96.016 96.008v0zM812.024 22.12c0-19.648-22.768-43.672-41.136-43.672h-517.752c-18.392 0-41.136 23.928-41.136 43.672v63.456h600v-71.456l0.024 8zM812 134.664h-600v624h600v-624zM811.976 807.44h-599.976v56c0 17.672 22.728 40.008 41.136 40.008h517.728c18.368 0 41.136-13.448 41.136-40.008v-56h-0.024zM590.576 853.080c0-10.136-8.848-18.368-19.64-18.368h-117.872c-10.888 0-19.64 8.232-19.64 18.368v0c0 10.184 8.752 18.368 19.64 18.368h117.88c10.8-0.008 19.632-8.192 19.632-18.368v0zM554.88 32.16c0-11.792-9.656-21.432-21.432-21.432h-42.888c-11.824 0-21.432 9.656-21.432 21.432v0c0 11.88 9.6 21.432 21.432 21.432h42.888c11.792 0 21.432-9.552 21.432-21.432v0z" />
<glyph unicode="&#xe915;" glyph-name="tel" data-tags="tel" d="M973.876 84.556c-2.23-28.24-15.444-53.92-37.132-72.276l-29.162-24.616c-127.316-107.568-399.85 8.528-620.408 264.296-151.876 176.134-239.276 373.194-228.13 514.316 4.508 57.12 25.894 103.384 61.824 133.752l29.124 24.584c21.724 18.39 49.414 27.294 77.954 25.038s54.458-15.388 73.022-36.992l99.624-115.47c37.208-43.118 31.638-112.772-11.804-149.484l-29.128-24.618c-9.374-7.908-14.492-18.626-15.608-32.734-2.108-26.684 8.858-88.262 105.906-200.828 113.932-132.162 187.738-151.18 218.834-124.948l29.134 24.652c44.904 37.898 112.61 32.554 150.946-11.92l99.648-115.538c18.56-21.576 27.586-49.004 25.36-77.218v0l-0.004 0.004zM119.736 761.48c-9.78-123.862 74.056-308.518 213.696-470.428 191.77-222.4 436.572-340.318 534.582-257.518l29.126 24.584c18.722 15.89 21.122 45.888 5.070 64.592l-99.622 115.504c-16.552 19.174-45.764 21.482-65.116 5.142l-29.128-24.652c-33.276-28.064-129.508-71.428-304.66 131.72-84.872 98.44-125.356 180.784-120.31 244.71 2.374 30.032 15.072 55.516 36.72 73.81l29.128 24.618c18.818 15.882 21.122 45.888 5.094 64.522l-99.65 115.504c-8.018 9.314-19.19 14.974-31.47 15.944-12.312 0.972-24.27-2.86-33.646-10.802l-29.124-24.584c-23.762-20.064-37.412-51.248-40.68-92.672l-0.006 0.002-0.004 0.004z" />
<glyph unicode="&#xe916;" glyph-name="crown" data-tags="crown" d="M597.332 741.344c0-47.128-38.205-85.333-85.333-85.333s-85.333 38.205-85.333 85.333c0 47.128 38.205 85.333 85.333 85.333s85.333-38.205 85.333-85.333zM1023.999 528.011c0-47.128-38.205-85.333-85.333-85.333s-85.333 38.205-85.333 85.333c0 47.128 38.205 85.333 85.333 85.333s85.333-38.205 85.333-85.333zM170.666 528.011c0-47.128-38.205-85.333-85.333-85.333s-85.333 38.205-85.333 85.333c0 47.128 38.205 85.333 85.333 85.333s85.333-38.205 85.333-85.333zM174.932 101.344l-89.6 426.667 256-213.333 170.667 426.667 170.667-426.667 256 213.333-89.6-426.667zM849.066 101.344c-61.525-26.667-270.379-32-313.941-32-34.773 0-310.229 5.333-360.192 32z" />
<glyph unicode="&#xe917;" glyph-name="triangle_d" data-tags="triangle_d" d="M4.376 750.126h1015.249l-507.624-668.275-507.624 668.275z" />
<glyph unicode="&#xe918;" glyph-name="sort" data-tags="sort" d="M350.515-32.45h-79.294v960.901h79.294v-960.901zM271.221 928.45l-203.991-187.577 53.594-58.442 150.401 139.098v106.921zM673.481-32.45h79.294v960.901h-79.294v-960.901zM752.226-32.45l204.543 187.577-53.594 58.442-150.401-139.097-0.552-106.922z" />
<glyph unicode="&#xe923;" glyph-name="see" data-tags="see" d="M512 797.696c-221.836 0-412.182-144.345-493.125-349.766 80.943-205.492 271.289-349.626 493.125-349.626 221.906 0 412.252 144.204 493.125 349.626-80.872 205.422-271.219 349.766-493.125 349.766zM341.379 561.067c32.405 0 58.611-26.277 58.611-58.682 0-61.852 50.158-112.010 112.010-112.010 32.405 0 57.343-26.277 57.343-58.682 0-32.335-32.687-58.541-59.879-58.541v-0.070c-135.962 0-227.965 102.64-227.965 229.233 0.070 32.476 27.545 58.752 59.879 58.752zM512 145.785c-196.616 0-365.617 123.845-443.742 302.145 67.488 154.207 203.167 267.485 365.758 295.382-101.654-32.969-175.271-128.283-175.271-240.927 0-139.907 113.419-253.184 253.255-253.184s253.255 113.278 253.255 253.184c0 112.644-73.617 207.958-175.2 240.856 162.59-27.897 298.2-141.175 365.758-295.382-78.196-178.229-247.196-302.074-443.812-302.074z" />
<glyph unicode="&#xe924;" glyph-name="nosee" data-tags="nosee" d="M641.531 864.671l-23.986-96.014c-34.177 7.487-69.324 11.716-105.511 11.716-218.301 0-405.615-141.976-485.268-344.124 72.028-182.807 232.097-315.979 423.431-339.896l11.369 45.685c-171.577 19.133-316.187 134.211-386.273 294.211 66.482 151.681 200 263.223 359.93 290.676-100.035-32.444-172.409-126.239-172.409-237.088 0-129.081 98.024-235.147 223.639-247.972l5.823 23.362c-115.286 9.983-205.823 106.62-205.823 224.61 0 31.889 25.927 57.747 57.747 57.747s57.608-25.858 57.608-57.747c0-60.866 49.359-110.225 110.225-110.225 2.912 0 5.754-0.416 8.596-0.832l-80.832-324.852 90.884-22.6 201.802 810.744-90.953 22.6zM588.706 726.855c5.962-0.971 11.785-2.426 17.608-3.605l3.12 12.756-3.813-15.321c-5.477 2.218-11.23 4.298-16.915 6.17zM817.545 675.694l-12.201-48.873c60.866-50.121 110.433-115.355 143.293-190.641-51.23-117.158-142.807-210.26-255.32-259.272l-13.795-55.529c143.431 51.508 259.41 166.863 317.712 314.8-37.99 96.638-100.866 179.272-179.688 239.514z" />
<glyph unicode="&#xe925;" glyph-name="lock" data-tags="lock" d="M524.195 399.23c-47.156 0-85.374-38.204-85.374-85.345 0-33.965 20.020-63.059 48.786-76.783v-93.868c0-20.18 16.4-36.577 36.588-36.577s36.59 16.396 36.59 36.577v93.871c28.767 13.725 48.786 42.816 48.786 76.782 0 47.139-38.219 85.343-85.376 85.343zM877.853 569.884h-731.669c-40.415 0-73.179-32.715-73.179-73.117v-487.609c0-40.4 32.765-73.152 73.179-73.152h731.67c40.377 0 73.142 32.753 73.142 73.152v487.609c0 40.401-32.766 73.117-73.144 73.117zM877.853 57.926c0-40.4-8.37-48.769-48.785-48.769h-634.137c-40.414 0-48.747 8.368-48.747 48.769v390.072c0 40.4 8.333 48.768 48.747 48.768h634.138c40.415 0 48.785-8.367 48.785-48.768v-390.072zM166.29 606.685c20.313 0 36.833 16.183 37.39 36.355l0.077-0.004c33.066 139.716 158.363 243.803 308.243 243.803 117.155 0 219.134-63.737 273.945-158.25 5.702-12.906 18.61-21.917 33.632-21.917 20.302 0 36.759 16.452 36.759 36.747 0 7.918-2.514 15.245-6.774 21.244-67.434 116.621-193.109 195.331-337.562 195.331-188.756 0-345.95-129.486-382.142-307.391-0.171-0.733-0.32-1.473-0.447-2.223-0.176-0.89-0.367-1.773-0.537-2.665l0.177-0.011c-0.114-1.189-0.177-2.394-0.177-3.614-0.002-20.659 16.751-37.405 37.415-37.405z" />
<glyph unicode="&#xe931;" glyph-name="collected" data-tags="collected" d="M1020.752 557.197q0-13.469-15.896-29.365l-222.074-216.593 52.621-305.861q0.626-4.307 0.626-12.215 0-12.842-6.421-21.691t-18.637-8.848q-11.589 0-24.432 7.36l-274.695 144.395-274.695-144.395q-13.469-7.36-24.432-7.36-12.842 0-19.263 8.848t-6.421 21.691q0 3.681 1.253 12.215l52.621 305.861-222.7 216.593q-15.27 16.522-15.27 29.365 0 22.63 34.298 28.111l307.113 44.634 137.661 278.376q11.589 25.058 29.991 25.058t29.991-25.058l137.661-278.376 307.113-44.634q34.298-5.481 34.298-28.111z" />
<glyph unicode="&#xe934;" glyph-name="collect" data-tags="collect" d="M1017.62 570.596c-4.318 12.88-15.441 22.283-28.906 24.369l-306.223 47.274-136.847 292.94c-5.927 12.733-18.698 20.893-32.748 20.929h-0.074c-14.014 0-26.748-8.086-32.785-20.783l-138.237-292.648-307.137-45.994c-13.283-2.269-24.186-11.708-28.357-24.479-4.208-12.77-0.915-26.82 8.452-36.48l222.541-228.907-53.129-322.542c-2.232-13.649 3.512-27.48 14.892-35.492 11.306-8.014 26.235-8.891 38.383-2.159l273.914 150.679 273.365-151.629c5.452-3.037 11.526-4.574 17.563-4.574 7.318 0 14.599 2.159 20.82 6.623 11.343 7.976 17.161 21.771 14.966 35.456l-52.031 322.689 223.090 227.956c9.477 9.659 12.77 23.894 8.489 36.773v0zM721.461 343.48c-8.014-8.196-11.708-19.758-9.843-31.102l43.030-267.108-225.578 125.138c-10.904 6.074-24.15 6.074-35.054 0.074l-226.127-124.406 43.981 266.962c1.829 11.306-1.793 22.869-9.807 31.138l-187.305 192.684 256.241 36.883c2.561 0.439 4.976 1.134 7.282 2.049 8.965 3.074 16.685 9.587 21.039 18.807l113.356 239.958 112.368-240.58c5.123-10.94 15.368-18.624 27.332-20.49l255.619-39.444-186.537-190.561z" />
<glyph unicode="&#xe936;" glyph-name="hearted" data-tags="hearted" d="M512.147 9.576q-14.834 0-25.137 10.303l-356.219 343.651q-5.7 4.53-15.71 14.834t-31.713 37.413-38.8 55.679-30.543 69.052-13.445 78.77q0 125.608 72.486 196.341t200.359 70.805q35.366 0 72.194-12.276t68.467-33.101 54.511-39.092 43.403-38.8q20.533 20.533 43.403 38.8t54.511 39.092 68.467 33.101 72.194 12.276q127.873 0 200.359-70.805t72.486-196.341q0-126.193-130.723-256.916l-355.634-342.481q-10.303-10.303-25.137-10.303z" />
<glyph unicode="&#xe938;" glyph-name="heart" data-tags="heart" d="M728.669 918.362c-90.303 0-161.406-44.992-216.637-119.166-55.295 74.239-126.271 119.166-216.637 119.166-162.814 0-295.293-143.807-295.293-320.572 0-105.47 47.488-179.454 85.567-238.845 110.846-172.67 376.571-359.164 388.283-368.251 11.392-8.704 24.768-13.056 37.952-13.056 13.312 0 26.56 4.352 37.952 13.056 11.839 9.088 277.501 195.582 388.347 368.251 38.080 59.392 85.631 133.375 85.631 238.845 0.064 176.766-132.479 320.572-295.165 320.572v0 0zM891.354 399.072c-107.774-167.934-380.027-357.756-380.027-357.756s-272.253 189.822-380.092 357.756c-39.807 61.952-75.327 120.895-75.327 202.301 0 140.542 104.959 254.525 234.429 254.525 95.743 0 164.286-62.335 200.83-151.55v0.384h0.064c2.688-9.28 10.688-16.064 20.032-16.064 9.408 0 17.344 6.783 20.032 16.064h0.256c36.543 89.022 105.086 151.166 200.574 151.166 129.535 0 234.493-113.983 234.493-254.525 0.128-81.407-35.455-140.35-75.263-202.301v0 0z" />
<glyph unicode="&#xe939;" glyph-name="back" data-tags="back" d="M717.712-77.708l-424.629 424.629c-42.667 42.667-42.667 112.761 0 155.427l425.647 425.647c11.175 12.191 30.476 12.191 42.667 0 12.191-11.175 12.191-30.476 0-42.667l-425.647-426.663c-9.143-9.143-14.221-21.332-14.221-34.539s5.077-25.397 14.221-34.539l424.631-424.629c12.189-11.175 12.189-30.476 0-42.667-6.095-6.095-13.207-9.143-21.332-9.143s-15.237 3.048-21.332 9.143h-0.004z" />
<glyph unicode="&#xe93c;" glyph-name="arr-right" data-tags="arr-right" d="M284.96-65.497c-8.124 0-15.233 3.048-21.329 9.143-12.19 12.19-12.19 31.487 0 42.667l424.61 424.61c9.143 9.143 14.221 21.329 14.221 34.535s-5.076 25.397-14.221 34.535l-425.626 426.647c-12.19 12.19-12.19 31.487 0 42.667 12.19 12.19 31.487 12.19 42.667 0l425.626-425.626c42.667-42.667 42.667-112.757 0-155.424l-423.599-424.61c-6.095-6.095-14.221-9.143-22.349-9.143z" />
<glyph unicode="&#xe943;" glyph-name="arraw-up" data-tags="arraw-up" d="M923.098 514.105l-412.923 413.178-409.274-409.274 48.46-48.461 326.487 326.488v-827.32h68.534v827.185l330.256-330.256z" />
<glyph unicode="&#xe944;" glyph-name="arraw-down" data-tags="arraw-down" d="M923.098 381.894l-412.923-413.177-409.274 409.274 48.46 48.461 326.487-326.488v827.32h68.534v-827.185l330.256 330.256z" />
<glyph unicode="&#xe945;" glyph-name="arr-up" data-tags="arr-up" d="M1025.109 221.135c0-8.121-3.045-15.226-9.135-21.317-12.18-12.18-31.466-12.18-42.632 0l-424.294 424.294c-9.135 9.135-21.317 14.211-34.512 14.211s-25.377-5.075-34.512-14.211l-426.323-425.309c-12.18-12.18-31.466-12.18-42.632 0-12.18 12.18-12.18 31.466 0 42.632l425.309 425.309c42.632 42.632 112.671 42.632 155.304 0l424.294-424.294c6.090-6.090 9.135-13.196 9.135-21.317z" />
<glyph unicode="&#xe946;" glyph-name="arr-down" data-tags="arr-down" d="M1015.977 653.55l-424.294-424.294c-42.632-42.632-112.671-42.632-155.304 0l-425.309 425.309c-12.18 11.166-12.18 30.451 0 42.632 11.166 12.18 30.451 12.18 42.632 0l426.323-425.309c9.135-9.135 21.317-14.211 34.512-14.211s25.377 5.075 34.512 14.211l424.294 424.294c11.166 12.18 30.451 12.18 42.632 0 6.090-6.090 9.135-13.196 9.135-21.317s-3.045-15.226-9.135-21.317z" />
<glyph unicode="&#xe951;" glyph-name="close" data-tags="close" d="M869.547 805.552c-197.445 197.445-517.644 197.445-715.091-0.001-197.452-197.452-197.454-517.651-0.006-715.096 197.453-197.452 517.652-197.451 715.103 0.001 197.445 197.445 197.445 517.644-0.005 715.096zM690.518 216.746l-177.874 177.873-177.311-177.311-51.093 51.093 177.312 177.311-179.89 179.889 51.257 51.256 179.889-179.889 180.414 180.414 51.119-51.119-180.414-180.414 177.834-177.859-51.243-51.245z" />
<glyph unicode="&#xe952;" glyph-name="close2" data-tags="close2" d="M818.388 754.393c41.381-41.381 73.366-89.629 95.159-143.324 21.084-51.883 31.746-106.764 31.663-163.070 0.080-56.301-10.579-111.186-31.667-163.067-21.793-53.697-53.77-101.946-95.148-143.323-41.379-41.379-89.632-73.361-143.327-95.152-51.879-21.087-106.764-31.746-163.066-31.667-56.301-0.080-111.188 10.578-163.066 31.667-53.697 21.79-101.949 53.77-143.331 95.152-41.377 41.376-73.354 89.627-95.146 143.323-21.089 51.878-31.746 106.765-31.667 163.067-0.083 56.305 10.579 111.186 31.663 163.070 21.794 53.694 53.778 101.943 95.158 143.323 41.377 41.377 89.622 73.359 143.318 95.151 51.883 21.084 106.764 31.746 163.070 31.664 56.308 0.083 111.186-10.58 163.071-31.664 53.694-21.79 101.942-53.773 143.317-95.15zM869.546 805.552c-197.445 197.445-517.645 197.445-715.091-0.001-197.452-197.452-197.453-517.65-0.006-715.095 197.453-197.453 517.651-197.451 715.102 0 197.446 197.445 197.446 517.644-0.004 715.096v0 0zM563.925 445.85l180.414 180.413-51.118 51.119-180.414-180.414-179.89 179.889-51.256-51.256 179.889-179.89-177.311-177.311 51.093-51.093 177.312 177.312 177.873-177.87 51.243 51.243-177.835 177.859z" />
<glyph unicode="&#xe953;" glyph-name="add" data-tags="add" d="M511.996 959.341c-282.373 0-511.336-228.963-511.336-511.337 0-282.382 228.962-511.345 511.336-511.345 282.383 0 511.344 228.964 511.344 511.345 0 282.374-228.962 511.337-511.344 511.337zM805.011 410.288h-254.38v-253.578h-73.071v253.578h-257.265v73.303h257.265v258.017h73.108v-258.017l254.344-0.017v-73.285z" />
<glyph unicode="&#xe954;" glyph-name="del" data-tags="del" d="M512.004 959.711c-282.608 0-511.712-229.108-511.712-511.71s229.103-511.711 511.712-511.711c282.601 0 511.704 229.109 511.704 511.711s-229.103 511.71-511.704 511.71zM768.131 411.161h-512.261v73.679h512.261v-73.679z" />
<glyph unicode="&#xe958;" glyph-name="warning" data-tags="warning" d="M512.002-63.335c282.4 0 511.334 228.935 511.334 511.332 0 282.404-228.933 511.339-511.334 511.339-282.404 0-511.338-228.935-511.338-511.339 0-282.4 228.933-511.332 511.338-511.332v0zM512.002 886.264c242.048 0 438.267-196.222 438.267-438.267 0.001-242.047-196.221-438.266-438.267-438.266-242.053 0-438.272 196.22-438.272 438.266s196.221 438.267 438.272 438.267v0zM576.082 156.502h-146.216v145.948h146.216v-145.948zM576.082 350.337h-146.216v391.002h146.216v-391.002z" />
<glyph unicode="&#xe95d;" glyph-name="good" data-tags="good" d="M199.738 135.737q0 15.847-11.554 27.479t-27.479 11.554-27.479-11.554-11.554-27.479 11.554-27.479 27.479-11.554 27.479 11.554 11.554 27.479zM902.33 487.034q0 31.070-23.811 54.568t-54.256 23.498h-214.681q0 35.364 29.275 97.27t29.275 97.895q0 59.798-19.517 88.449t-78.066 28.65q-15.847-15.847-23.185-51.836t-18.58-76.505-36.3-66.746q-13.428-14.052-46.996-55.505-2.42-3.045-14.052-18.267t-19.204-24.981-21.078-25.917-24.357-26.855-23.498-21.625-24.357-16.472-21.625-5.465h-19.517v-390.329h19.517q7.963 0 19.204-1.795t20.141-3.981 23.185-6.713 21.312-7.026 21.625-7.65 17.721-6.402q128.652-44.497 208.592-44.497h73.772q117.099 0 117.099 101.876 0 15.847-3.045 34.193 18.267 9.758 28.962 32.007t10.695 44.81-11.007 42.078q32.319 30.524 32.319 72.601 0 15.223-6.089 33.881t-15.223 28.962q19.517 0.624 32.632 28.65t13.115 49.415zM980.396 487.658q0-54.256-29.9-99.378 5.465-20.141 5.465-42.078 0-46.996-23.185-87.824 1.795-12.802 1.795-26.23 0-61.594-36.613-108.59 0.624-84.779-51.836-133.883t-138.411-49.104h-78.69q-58.549 0-115.537 13.739t-132.010 39.97q-70.727 24.357-84.155 24.357h-175.648q-32.319 0-55.193 22.873t-22.873 55.193v390.329q0 32.319 22.873 55.193t55.193 22.873h167.139q21.936 14.599 83.531 94.538 35.364 45.747 65.263 78.066 14.599 15.223 21.625 52.148t18.58 77.129 37.784 65.888q23.811 22.561 54.88 22.561 51.212 0 92.118-19.828t62.219-61.906 21.312-113.43q0-56.754-29.275-117.099h107.34q63.467 0 109.761-46.371t46.371-109.136z" />
<glyph unicode="&#xe95f;" glyph-name="bad" data-tags="bad" d="M199.657 760.261q0 15.847-11.554 27.479t-27.479 11.554-27.479-11.554-11.554-27.479 11.554-27.479 27.479-11.554 27.479 11.554 11.554 27.479zM902.25 408.964q0 21.312-13.115 49.415t-32.632 28.65q9.134 10.383 15.223 28.962t6.089 33.881q0 42.078-32.319 72.601 11.007 19.517 11.007 42.078t-10.695 44.81-28.962 32.007q3.045 18.267 3.045 34.193 0 51.836-29.9 76.817t-82.906 24.981h-78.066q-79.861 0-208.592-44.497-3.045-1.249-17.721-6.402t-21.625-7.65-21.312-7.026-23.185-6.713-20.141-3.981-19.204-1.795h-19.517v-390.329h19.517q9.758 0 21.625-5.465t24.357-16.472 23.498-21.625 24.357-26.855 21.078-25.917 19.204-24.981 14.052-18.267q33.568-41.453 46.996-55.505 24.981-26.23 36.3-66.746t18.58-76.505 23.185-51.836q58.549 0 78.066 28.65t19.517 88.449q0 35.989-29.275 97.895t-29.275 97.27h214.681q30.524 0 54.256 23.498t23.811 54.568zM980.317 408.34q0-62.843-46.371-109.136t-109.761-46.371h-107.34q29.275-60.345 29.275-117.099 0-71.977-21.312-113.43-21.312-42.078-62.219-61.906t-92.118-19.828q-31.070 0-54.88 22.561-20.766 20.141-32.944 50.041t-15.535 55.193-10.695 51.523-18.892 39.033q-29.275 30.524-65.263 77.442-61.594 79.861-83.531 94.538h-167.139q-32.319 0-55.193 22.873t-22.873 55.193v390.329q0 32.319 22.873 55.193t55.193 22.873h175.648q13.428 0 84.155 24.357 78.066 26.855 135.991 40.282t122.017 13.428h68.308q85.404 0 138.177-48.167t52.148-131.775v-3.045q36.613-46.996 36.613-108.59 0-13.428-1.795-26.23 23.185-40.829 23.185-87.824 0-21.936-5.465-42.078 29.9-45.123 29.9-99.378z" />
</font>
</defs>
</svg>
